<?xml version="1.0" encoding="utf-8"?>
<!-- Generator: Adobe Illustrator 24.1.0, SVG Export Plug-In . SVG Version: 6.00 Build 0)  -->
<svg version="1.1" id="Layer_1" xmlns="http://www.w3.org/2000/svg" xmlns:xlink="http://www.w3.org/1999/xlink" x="0px" y="0px"
	 viewBox="0 0 50 65" style="enable-background:new 0 0 50 65;" xml:space="preserve">
<style type="text/css">
	.st0{fill:#3AA757;}
	.st1{fill:#2376E5;}
</style>
<g>
	<path class="st1" d="M25,36.84c-6.54,0-11.84-5.3-11.84-11.84c0-6.54,5.3-11.84,11.84-11.84c6.54,0,11.84,5.3,11.84,11.84
		C36.84,31.54,31.54,36.84,25,36.84L25,36.84z M25,0C11.19,0,0,11.19,0,25c0,3.29,0.64,6.43,1.79,9.31
		c0.32,0.75,0.67,1.51,1.04,2.27C7.27,45.63,15.08,55.38,25,65c9.92-9.62,17.74-19.38,22.17-28.43c0.37-0.76,0.72-1.51,1.04-2.26
		C49.36,31.43,50,28.29,50,25C50,11.19,38.81,0,25,0L25,0z"/>
</g>
</svg>
