<svg viewBox="0 0 102 102" fill="current" preserveAspectRatio="xMidYMid meet"
    xmlns="http://www.w3.org/2000/svg">
    <circle cx="50" cy="50" r="48" fill="#000" fill-opacity="0.5"/>
    <path fill="current" stroke="current" d="M41.6711 34.3089L65.0222 47.9311C65.1896 48.0291 65.3284 48.1691 65.4248 48.3373C65.5213 48.5056 65.572 48.6961 65.572 48.89C65.572 49.0839 65.5213 49.2744 65.4248 49.4426C65.3284 49.6109 65.1896 49.7509 65.0222 49.8489L41.6711 63.4711C41.5019 63.5698 41.3097 63.6221 41.1138 63.6225C40.9179 63.623 40.7254 63.5717 40.5557 63.4738C40.3861 63.3759 40.2453 63.2348 40.1477 63.065C40.0501 62.8952 39.9992 62.7025 40 62.5067V35.2689C40 35.0734 40.0515 34.8813 40.1494 34.7121C40.2473 34.5429 40.3881 34.4025 40.5577 34.3051C40.7272 34.2077 40.9194 34.1568 41.1149 34.1574C41.3104 34.1581 41.5023 34.2103 41.6711 34.3089Z"/>
</svg>
