<svg id="Layer_1" data-name="Layer 1"
    xmlns="http://www.w3.org/2000/svg" viewBox="0 0 1314.42 300.49">
    <defs>
        <style>.cls-1{fill:#fff;}</style>
    </defs>
    <title>Chp1Title</title>
    <path class="cls-1" d="M176.26,81.17l26.29-4.31-.62-.45,54.5-18.09,4,8.07-5.11,1.06c6.87.72,5.12,4.14,3.93,7.28,7.11-1.24,7.06-1.72,9.18-11.83,2.59-12.38,5.45-24.73,9-36.85,1.28-4.37,4.94-8,8.27-13.2,4,9.29,5.41,18.25,11.42,26.69-.83,3.59-1.8,8.92-3.38,14.06-.95,3.07-3,5.78-4.33,8.75-2.77,6.11-6.08,12-5,19.28.29,2-3.23,4.1-.27,6.61.27.23-.5,2.61-1.27,3-5.16,2.53-6.55,8-9.07,12.26-2.73,4.64-4.9,10.31-5.09,15.6-.34,9.74-5.18,17.86-7.64,26.79s-5.27,18-8,26.89c-2.61,8.49-5.83,16.83-7.87,25.44-1.76,7.38-.82,15.65-3.68,22.43-2.58,6.1-2.46,12.15-3.6,18.18-.78,4.14-.09,8.55-.78,12.72s-3.94,8.61-3.08,12.23c1.27,5.43-2.76,7.59-4.18,11.66l-3.08-1.88L225.18,277l-9.1-11.39c-1,4.91-1.88,9.26-2.76,13.61l-1.79-.08c-.21-5.46.53-11.16-.82-16.32-3-11.24,1-21.28,3.61-31.71,1.55-6.24,1.82-12.79,3.23-19.07,2.45-10.92,5-21.82,8.12-32.58,3.22-11.26,7-22.37,10.7-33.47.88-2.62,2.61-4.93,3.81-7.45a91.93,91.93,0,0,0,4.6-10.37c3.07-9.22,5.84-18.54,9-28.81-4.85,1.82-8.81,3.53-12.89,4.8-9,2.77-18,5.39-27,7.94C201,115.72,192.17,123.51,189.43,137c-1.77,8.71-2.61,17.62-4.18,26.38-.61,3.42-2,6.7-3.15,10-3.13,9.08-3.25,18.54-3.86,28a20.45,20.45,0,0,1-2.41,7.43c-4,8.09-8.3,16-12.4,24.09-2.28,4.49-4,9-8.59,12.24-3.45,2.47-5.12,7.35-7.87,10.95a83.75,83.75,0,0,1-6.43,6.72V251.64c-3.35,4.38-5.74,7.49-8.24,10.77-1.3-1.46-2.28-3.12-2.72-3-5.26,1.6-4.29-2.1-4.5-5a5.57,5.57,0,0,0-.94-3.2c-4.67-5-1.12-10-.07-16.2L119,240.72l-.8-.31c2.43-6.36,4.57-12.85,7.35-19,6.86-15.32,9.72-31.73,13.84-47.82,2.67-10.4,6.14-20.59,9.16-30.91a18.17,18.17,0,0,0,.26-4.13c-1.45.42-3.18.49-4.3,1.35-2.25,1.74-4,4.22-6.29,5.8-1.89,1.28-4.55,1.38-6.56,2.55-13.21,7.72-26.6,15.17-39.42,23.51-13.9,9-27.3,18.87-40.83,28.5Q40.49,208,30,216.26a27.22,27.22,0,0,0-6.19,6.79c-3.13,5-17.77,6.21-21.22,4.18-2.7-1.58-3.65-10.3-.89-13.88C7.3,206,12.93,198.57,19.6,192.25c13.51-12.83,28.08-24.55,41.54-37.43,16.69-15.95,36.05-28.08,55.07-40.78,4.14-2.76,8.07-5.82,12.09-8.76,2.45-1.79,2.94-3.83.79-6.25a67.29,67.29,0,0,1-16.2-32.59c-2.06-10.88-1.94-21.93,3-32.4,1.46-3.1,2.23-6.53,3.44-9.76,2.29-6.08,5.32-7.71,11.76-6.48,5.2,1,10.66.76,14.62,5.76,1,1.25,5.33.47,7.89-.25,12.82-3.59,22.79.64,31.06,10.48,1.49,1.78,4.42,2.52,5.57,4.41,5.63,9.31,4.35,18.2-2.25,26.68C184,69.94,180.46,75.29,176.26,81.17ZM144.4,46.38c1.75,5.78,3.11,11,5,16,.4,1.07,3.65,2.32,4.17,1.86a67.3,67.3,0,0,0,10.25-10.42c2.93-4,2-8.22-1.75-11.63-4.5-4.05-9.62-2.45-14.37-1C146.26,41.64,145.53,44.52,144.4,46.38Z"/>
    <path class="cls-1" d="M815.82,232.17c.12-2.22.4-4.45.32-6.67-.06-1.62-.84-3.23-.86-4.85-.08-6.71.35-13.44-.06-20.12-.54-8.95-1.7-17.86-2.56-26.8a30.31,30.31,0,0,1-.25-5.46c1.18-12.65-2.47-24.74-4.21-37.05-1-7.37-1.64-14.8-2.74-22.15-1.07-7.15-2.47-14.26-3.83-21.37S799,73.76,797.32,66.88c-.84-3.43-2.54-6.65-3.78-9.8a79.74,79.74,0,0,0-7.94,1.34c-8.26,2.28-11.41,8.8-13.58,16.32-1.11,3.87-3,7.5-4.53,11.15-7.29-2.44-11.72-12.1-9.62-19.06,2-6.72,3.86-13.57,6.73-19.93,4.34-9.63,12.68-15.53,21.92-19.86,4.24-2,8.2,1.75,12.75,6.51,7.53,7.89,10.11,17.77,13.44,27.46.75,2.17,1,4.5,1.62,6.73.52,1.89.62,4.46,1.9,5.46,4.66,3.64,7.07,8.55,9.61,13.66s6.44,9.81,9.15,15c1.58,3,2,6.62,3,10,.07.26-.11.64,0,.82C847.86,126,852.07,142.07,858.7,157c4,9.08,6.86,18.71,10.19,28.1,1.21,3.39,2.32,6.82,3.47,10.23l1.81-.09c1.35-4.12,2.65-8.25,4.05-12.34,1.85-5.35,3.51-10.8,5.75-16a183.75,183.75,0,0,1,9.31-19.08c2.93-5.08,6.83-9.6,10.16-14.47a40.64,40.64,0,0,0,2.9-5.65,18.27,18.27,0,0,1,1-2.72c7.06-9.87,13.86-19.94,21.42-29.42,3.23-4.05,8.29-6.6,12.09-10.27,2.24-2.16,4.45-5,5.25-7.86,1.62-5.86,2-12,3.44-18,.73-3.05,3-5.74,3.8-8.79,2.47-9,4.57-18.16,6.81-27.25.08-.32.24-.74.1-1C954.48,12.34,966,8.32,966.87.62L968.66,0c3.36,3.1,6.71,6.21,10.92,10.09-13,6.49-12.39,16.05-8,26.54l3.2-1c1.34,1.43-5.5,3.43.51,4.51a14,14,0,0,1-.69,5.54c-2.86,6-2.38,12.26-2.27,18.59.09,4.75-.65,9.51-.83,14.27-.15,4.09,0,8.2,0,12.65l-2.13,1.47a13.18,13.18,0,0,1,1.74,2.16c.52,1,1.23,2.14,1.07,3.1-.64,3.86-2.29,7.68-2.28,11.52,0,9.52.79,19,1.16,28.57a54.31,54.31,0,0,1-.47,6.12l4.29-.86c-3.65,5.77-9.79,11.07-3.36,16.56-.33,3.82-.93,7-.82,10.13.22,5.91,1.13,11.8,1.21,17.7,0,2.93-1.24,5.85-1.7,8.81-.22,1.42.19,2.92.15,4.38a37.63,37.63,0,0,1-1.05,8.76c.53,2,1.72,4,1.47,5.93-.8,6.06-2.61,12-3.12,18.08a170.24,170.24,0,0,0,0,20.58c0,1,1.89,2.29,3.15,2.72,3.65,1.24,7.39,2.68,11.18,3s3.37,2.29,3.39,5.07l-8.81-1.26a270.07,270.07,0,0,0,44.22,10.14c.1-.49.2-1,.29-1.48l-32.66-7.12.42-1.89,36,7.68c.1-.29.2-.58.31-.86l-6-2.56c.13-.4.27-.81.41-1.21,2.74.94,7.51,1.44,7.82,2.91.76,3.53-.56,7.52-1.15,12.18,2.9,2.46,2.93,2.78-.54,6l3.13,5.23c-23.82-7.24-46.69-13.76-70-17.44a61.34,61.34,0,0,0-6.2-1.48,49,49,0,0,0-7.84-.54c-3.41.05-6.81.49-10.23.64-4.85.21-9.35-.49-13.61-3.38-1.28-.87-4.22.63-6.36,1.18-.84.23-1.6,1.26-2.36,1.22-3.5-.17-7-1-10.47-.81a61.94,61.94,0,0,0-11.94,2.26c-1.85.5-3.44,1.94-5.26,2.16l-4.22.88a57.89,57.89,0,0,1-7.31,1.43c-3.88.27-7.79.18-11.68.21a24.06,24.06,0,0,0-3.49-.08c-6.2,1-9.63-.3-11.7-6.37-3-8.88-5.22-18-7.39-27.18-.49-2,.61-4.44,1-6.72,10.81-2.88,19.41,2.1,21.55,13,.59,3,1.9,3.54,4.31,3.32,12.17-1.11,24.32-2.65,36.52-3.24,9.17-.43,18.48-2.72,27.64,1.38,2,.88,6-.38,7.81-2a27.09,27.09,0,0,0,9-18.72c.36-6.71,1.39-13.38,2-20.08.22-2.37-.12-4.78.09-7.15.27-3.07,1.72-6.29,1.13-9.13-3.42-16.56.91-32.94.66-49.39-.22-14-.74-28-1.2-42a35.26,35.26,0,0,0-1-5.19c-3.62,1.94-7,3.57-10.12,5.45-9.7,5.76-15.22,14.85-20.28,24.59-4.28,8.23-10.21,15.6-14.54,23.8a203.46,203.46,0,0,0-12.82,28.43,148.34,148.34,0,0,0-6.63,28.76c-.89,6.78.56,13.84.84,20.78.14,3.53,0,7.07,0,10.95-3.75.45-8-.16-10.94,3.92-1.35,1.85-6.51-2.19-7.25-5.38-2.69-11.49-5.24-23-8.45-34.38-1.73-6.1-5-11.76-7-17.8s-3-12.51-5.21-18.54c-2.89-8-6.59-15.77-9.73-23.72-4.3-10.9-8.37-21.89-12.61-32.81-1-2.56-2.27-5-3.42-7.52l-2,.48c.77,3.91,1.24,7.92,2.39,11.71.9,3,3.07,5.57,3.9,8.54.65,2.31.08,5,.07,7.45s-.19,4.91,0,7.34q2.39,27.18,4.94,54.36c.52,5.56,1.11,11.12,2,16.64,1.24,8.24-3,13.19-9.57,17-1.4.81-2.68,1.82-4,2.74Z"/>
    <path class="cls-1" d="M1190.35,165.46l15.57.88,0,1.13-4.29,1.11-.27,1.06c2,.66,4,1.84,5.95,1.87,6.17.08,11.18,2.94,16.45,5.57a22.33,22.33,0,0,0,9.65,1.87c10.59,0,19.39,4.63,27.64,10.51a32,32,0,0,0,15,6.15c5.72.73,11.23,3.16,17,4,4.83.69,9.84.14,14.25.14.12.9.27,2.08.48,3.7l-2.87-.83-2.43,5.34,12,5.45-.33,1.07h-6c1.68,2.13,4.22,4,4,5.32-.52,2.68-2.55,5.06-4.45,8.42-2.11-4.16-3.71-5.74-7-2.79-1,.86-4-.25-5.94-.9-8.26-2.78-16.29-6.6-24.76-8.2-3.87-.73-10.06,1.55-12.56,4.62-6.9,8.43-12.73,17.81-18.3,27.21-2.18,3.68-2.55,8.43-3.78,12.68a12,12,0,0,1-1.07,2.74c-3,5.18-2.53,7,3.28,7.23,8,.33,15.9,1.93,24.12-.8,4.78-1.59,10.72-.09,16.07.55,5.76.7,11.45,2,17.86,3.19l-4.19,1.9c1.74.35,3.46.34,4.69,1.11.54.34.09,2.27.09,4.12l4.28,3.9c-2.39,1.1-4.51,2.11-6.67,3a5.13,5.13,0,0,1-1.93.4c-11.31,0-22.62.23-33.91-.14-8.77-.29-17.52-1.51-26.29-2-9.11-.54-18.24-.91-27.37-1-13.28-.18-26.52-.29-39.44,4.05-12.32,4.14-24.91,7.5-37.39,11.16a6,6,0,0,1-2.8.17c-5.64-1.15-11.3-2.28-16.87-3.7-1.44-.36-2.62-1.74-3.92-2.66.94-1.31,1.87-2.64,2.83-3.94.47-.63,1-1.22,1.56-1.91a7.75,7.75,0,0,0,.51,1.11c7-2.13,13.51-4.75,20.27-6,11.66-2.2,23.51-3.11,34.7-7.74,5.71-2.37,12.06-3.16,18-5a14.16,14.16,0,0,0,9.24-8.28c.87-2,2.81-3.62,4.48-5.18,6.93-6.48,11.07-14.74,14.67-23.26,5-11.81,9.58-23.78,14.49-36.07a108.18,108.18,0,0,0-34.14-11.64,99.58,99.58,0,0,0-17.37-1,20.52,20.52,0,0,0-8.1,2c-8.32,3.81-16.52,7.88-24.71,12-2,1-3.81,2.4-6.22,3.93l2.06,1.13L1101,221.77c-.65-.19-1.8-.92-2.78-.74-3.64.7-7.29,2.59-10.82,2.36-5-.33-6-6-8.92-9.12-1-1-2.29-3.3-1.93-3.71a23,23,0,0,1,6.19-5.52c12.06-6.55,24.32-12.73,36.36-19.3,4.6-2.52,8.76-5.83,13.22-8.63q44.61-27.92,89.3-55.71c5.52-3.42,11.44-6.2,17.6-9.51-7.65-.71-15-1.38-22.29-2.12-.43,0-.81-.67-1.18-1.06-2.3-2.34-3.71-2.56-7.19-.47-4.16,2.5-10,2.15-15.29,2.31l6.78-1.49c-2.55-3.44-5.4-3.18-9-2.56-11.92,2.09-24,3.56-35.89,5.53-2.16.36-4.08,2.06-6.16,3-1.15.53-2.44.73-3.64,1.16-1.82.65-3.72,2.15-5.41,1.94-5.07-.64-8.43,2.61-12.56,4.29-4.82,2-11.26-1.11-15.12,4.58-.12.18-.66.16-1,.1-3.38-.59-6.32-1.86-9.66,1.67-1.8,1.9-6.56,1.13-10,1.31-10.62.55-20,4.35-28.53,10.53-2.2,1.58-4.13,4.56-8,1.69-1-.76-5.53,1.95-7.5,4-3.1,3.17-4.38,8.31-9.57,9.12-2,.31-4.12-.41-6.74-.73,6.7-9.83,14.48-16.58,23.45-22.48a87.08,87.08,0,0,1,23.89-10.83c9.72-2.81,19.64-4.91,29.2-7.26l-2.46,3.17c4.58,1.83,8.09-.29,11.62-1.48,9.79-3.28,19.45-7,29.31-10a45.16,45.16,0,0,1,14.57-1.48L1146.37,109c.13.54.27,1.08.41,1.61l57.14-10.24V99.15c-2.29-.13-4.58-.31-6.87-.37a35.22,35.22,0,0,1-7.58-.63c9-1.6,18.06-3.08,27-4.91,2.27-.46,4.24-2.74,6.47-3,4.68-.48,9.44-.15,14.35-.15.39,4.82,2.49,7.28,7.66,7.34,3.28,0,6.55,1.65,9.69,3.18l-14.33-.68c-.07.66-.14,1.32-.22,2l9.29,1.59c-.89,3.39-1.76,3.73-7.26,3.15-3.17-.35-6.36-.47-9.55-.69l-.3,1.43c1.59.5,3.19,1.46,4.77,1.44,9.74-.13,19.48-.47,29.22-.75.5,0,1.29.11,1.45-.14,3-4.74,7.26-3.68,11.61-2.36l-2.82,1.9a46.75,46.75,0,0,1,3.59,4.1,19.53,19.53,0,0,1-2.16,2l3.35,3.79c-2.34.12-3.56,0-4.62.29-2.29.71-6.26-2.36-6.7,2.94,0,.45-2.32.83-3.59,1.06-3.06.55-6.35.47-9.18,1.58-7.25,2.81-15.32,3.9-20.78,10.65-1.64,2-5.29,2.93-8.16,3.37-4,.62-6.72,2.71-9.43,5.46-1.76,1.78-4.4,2.67-6.48,4.19-6.42,4.68-12.82,9.39-19.07,14.29C1192,162.31,1191.24,164.15,1190.35,165.46Z"/>
    <path class="cls-1" d="M353,248l4.41,2c0-7.33-.35-14.47.16-21.55a15.88,15.88,0,0,1,3.61-8.41c6.23-7.35,8-16.25,8.93-25.22,1.8-17,2.63-34,4.39-51,.91-8.77-3-15.5-7.66-22.42-8.92,1-16.4,6-22.74,12.06-10.11,9.57-19.52,6.31-26.88-3.4A78.45,78.45,0,0,1,309,116.22c-.69-1.45.14-4.88,1.43-5.81,10.13-7.34,20.5-14.37,30.88-21.35,4.63-3.12,10-5.29,14.09-9,8.91-8.16,19.48-12.9,30.85-15.59a148.37,148.37,0,0,1,26.29-3.29c7.65-.41,11.77,2.5,13.18,10.08a72.86,72.86,0,0,1,.82,22c-1.11,8.82-4.33,17.34-6.05,26.11-2,10.37-3.3,20.9-5.14,31.31-1.47,8.33-3.53,16.56-4.9,24.9-2.52,15.3-5,30.61-7,46-.94,7.17-.3,14.54-1.28,21.7-.56,4-2.88,7.83-4.6,11.64a14.68,14.68,0,0,1-3.25,5.15c-3.08,2.66-6.31,5.22-10.95,2.61s-8.74-.74-12.28,2.22c-3.08,2.58-5.36,1.58-7.32-1-3.81-4.95-7.39-10.06-11.06-15.1C352.8,248.56,352.9,248.26,353,248Z"/>
    <path class="cls-1" d="M478.37,260l.61-5.28c-2,1.41-4,2.32-5.31,3.81-2.76,3.06-5,3.23-7.58-1.77-1.56,2.85-2.58,4.93-3.81,6.88a32,32,0,0,1-2.83,3.47c-.86-1.17-2.14-2.23-2.5-3.54-.76-2.74-1.37-4.8-3.84-7.15-2.28-2.17-1.76-7.83-1.6-11.91a133.53,133.53,0,0,1,2-20c2.25-11.78,4.69-23.57,7.93-35.11a191.45,191.45,0,0,1,10.22-28.24c6.73-14.62,8.88-30.48,13.19-45.71,2.08-7.33,4.67-13.57,9.65-19.14A23.64,23.64,0,0,0,498.56,89c5-12.85,13.42-23.38,21.63-34.23a173.58,173.58,0,0,0,17.24-28.28c4.68-9.55,12.67-15.83,19-23.14,4,1.14,7.52,2.42,11.18,3.13,6.27,1.2,10.18,5.68,14.23,9.89.78.81.77,2.93.38,4.22-1.93,6.42-6.46,10.88-11.59,14.92-1.32,1-2,2.91-3.18,4.77l-2.22-2.61c-1.06,3.1-2,5.74-3,8.8l2.23.22L554.19,57.27l.41.8,6.21-2.46c-3.21,3.9-6.28,7.71-9.44,11.45-3.4,4-9.76,5.75-9.69,12.58l3.48-1.82-8.92,12.32c-4.06-3.18-4.52,1.39-5.93,3.23-3.46,4.53-2.87,10.27-3.95,15.48-3,14.28-4.92,28.71-10.54,42.41-3.19,7.77-3.92,16.51-6.63,24.51-4.06,12-4.67,24.53-7.21,36.73-2.3,11-5.74,21.84-8.83,32.71a4.38,4.38,0,0,1-2.54,2.66C484.05,249.45,481.28,254.48,478.37,260Z"/>
    <path class="cls-1" d="M542.13,262.63c-1.52,4.91-5.62,5.62-10.28,4.26-4.2-1.22-5.88-4.44-5.43-8.76a62.34,62.34,0,0,1,1.07-8.34,4,4,0,0,1,2.86-2.44c9.66-.37,18-4.66,26.84-7.92,7.49-2.78,15.53-4.07,23.32-6,9.62-2.43,19.2-5,28.87-7.27,6.87-1.57,13.84-2.8,20.82-3.85,8.87-1.35,17.8-2.37,26.71-3.53,4.33-.56,8.64-1.38,13-1.62,5.71-.33,9.08-2.93,11.83-8.08,4.28-8,9.72-15.4,14.55-23.11,2.38-3.79,5.25-7.19,2.46-12.54-1.29-2.47-.44-6.69.68-9.66,2.91-7.74,16.94-11.8,23.05-6.44,3.89,3.41,6.73,8.44,5.32,14-2.53,10-5.79,19.9-8.45,29.91-1.93,7.27-3,14.8-5.17,22-3,9.76-6.58,19.35-10.15,28.92-2,5.31-4.33,10.5-6.7,15.65a39.93,39.93,0,0,1-3.74,6.07,2.67,2.67,0,0,1-1.88.68,18,18,0,0,1-1.39-3.27l-8.68,4.2c-.56-2.1-1.26-4.71-2.08-7.82l-1.48.09c.48-7.85,1.17-15.43,1.26-23,0-2.17-1.17-5.64-2.68-6.21-1.79-.67-5.35-2-6.85,2.25-.78,2.23-9.52,2.2-12,.87a6.72,6.72,0,0,0-4.2-.27c-3.27.7-6.46,1.79-9.71,2.56-2.27.53-5,.11-6.82,1.27-6.26,4.09-12.73,2.9-19.41,2-2.84-.4-5.89.19-8.77.7-6.59,1.17-13.12,2.59-19.68,3.87-7.55,1.48-15.19,2.63-22.64,4.5-6,1.49-11.7,4-17.61,5.77C547,262.56,545,262.39,542.13,262.63Z"/>
    <path class="cls-1" d="M574.24,157.92c1.68-3.21,3.47-6.71,5.35-10.15.55-1,1.5-1.79,2.09-2.78,1.77-3,1.9-7.81,6.49-7.81,9.92,0,20.48-6.46,29.59,1,4.68,3.83,7.52,9.94,11.08,15.09.37.52.09,1.55,0,2.33-1.45,11.86-8.49,20.27-17.19,27.61-3.62,3.06-7.75,5.65-10.87,9.15-2.77,3.12-5.67,2.57-8.28,1.24-6.61-3.36-12.36-7.43-13.43-16C578.28,171.36,576.09,165.26,574.24,157.92Zm30.21-7-1.23-1.42c-11.47-.91-16.06,4.66-10.75,16C596.65,160.35,600.55,155.62,604.45,150.89Z"/>
</svg>