<svg id="Layer_1" data-name="Layer 1" xmlns="http://www.w3.org/2000/svg" viewBox="0 0 1333.9 305.64"><defs><style>.cls-1{fill: #fff;}</style></defs><title>Chp2Title</title><path class="cls-1" d="M242.12,280.22l-3.68,1.46,4,2.9H223.48c0,.14-.09.28-.14.43l16.56,2.71,0,1.06-5,1.45,6.81,2.69-2.39,3.4,2.18,1.3c-1.26,1-2.81,1.8-3.43,3-.34.68.87,2.15,1.79,4.17-15.21,2.13-30-6-45.18-1.86.23-1.1.43-2.09.65-3.14-.6,0-.95-.11-1.17,0-3.74,2-7.31,2.55-11.91,2.6-10.43.12-20.95-.8-31.45.69-6,.85-12.23-.16-18.36-.44s-12.68.3-18.59-1.24C100.68,298,87.71,293.51,79.27,283c2.18-5.62-2.17-9.26-2.9-13.76-.51.83-1,1.66-1.55,2.5-.25-.16-.65-.27-.72-.49-1.11-3.45-.17-7.7-3.94-10.14-.17-.11-.2-.63-.12-.9,1.45-4.31,2-9.29,4.66-12.71,2.1-2.73,6.51-4.3,10.17-5.11,6.88-1.53,14-2.14,22.11-3.3L102.8,242c39.25-7.92,79.15-5,117.49-6l7.06-18.1-7.91,2.3,3.23,1.9a21.29,21.29,0,0,1-4.37,0c-5-1.22-9.84-2.92-14.86-3.79-2.88-.5-6,.43-9,.4-6.41-.05-13.43,1.19-19-1.05-3.56-1.43-6.65-2.48-10.16-2-6.25.82-12.63-.36-18.87,2.37-2.59,1.13-6.59-1.49-9.91-1.36-7.9.32-15.78,1.27-23.67,2-5.77.51-11.67.45-17.26,1.75-5.15,1.21-10,3.86-14.91,5.93-4.33,1.81-8.5,4.45-13.39,3.89-5.05-.58-9.26-5.58-10-10.49-.36-2.59-1.42-5.08-2.48-8.67,6.87-2.08,14.26-5.14,21.94-6.49,19.52-3.44,39.13-6.54,58.8-8.91,11-1.33,22.17-1,33.27-1.3,8-.19,16.22-1,24.09.14,6.57,1,12.74,4.45,19.17,6.57,2.45.81,5.27.55,7.68,1.44a84.81,84.81,0,0,1,9,4.51c-.23.53-.45,1.07-.68,1.61l-22.43-5.49c-.22.44-.43.88-.64,1.32,2,1,3.84,2.4,5.92,2.87,5.91,1.32,11,4.15,16,7.35a6.66,6.66,0,0,0,3.84.82c2.8-.21,5.57-1,8.37-1.12,4.16-.2,9.17,3.49,9.91,7.48a46.61,46.61,0,0,1-2.26,26c-1.19,3-5,4.9-7.56,7.27-8.17-8.12-21.65-8.46-29.87-1.93-1.11.88-3.07.92-4.64,1-8.68.27-17.36.32-26,.62-12.71.45-25.43.86-38.12,1.65-11.9.73-23.77,1.93-35.65,2.91-2.7.22-3.54,1.68-2.53,4.06,2.2,5.23,5.29,9,11.62,10.05,20.22,3.42,40.51,4.35,61,4.07,22.3-.31,44.6.56,66.9.92C242,279,242.08,279.61,242.12,280.22Z"/><path class="cls-1" d="M442.88,162.87l-9,11.28,5.74-.52c-3.76,8.6-6.89,17.67-14.56,22.87-5.34,3.61-12.36,5-18.83,6.6-9.91,2.41-20,4-30,6.17-4.1.91-7.94,3.11-12.05,3.85-6.1,1.09-12.53.71-18.48,2.23-8.76,2.24-17.21,5.64-25.83,8.45-1,.32-2.69.45-3.23-.11a104.51,104.51,0,0,1-8.39-9.82c-1.35-1.82-1.73-4.34-3-6.26-3.81-5.9-3.21-11.81-.79-18,.85-2.16,2.83-5-1.66-6-.32-.06-.29-1.48-.54-2.23-1.41-4-2.8-8.08-4.3-12.08-1.58-4.22-4.62-5.49-9.07-5-5.39.61-11.2,2-15.36-4.27a20.69,20.69,0,0,1,13.35-12.78c11.14-3.41,22.73-5.36,34.09-8.08,15.38-3.67,31.06-6.5,45.94-11.65,8.14-2.82,14.35-10.07,15.91-19.7.31-1.91,1.3-3.75,1.41-5.65.07-1.23-.6-3.28-1.45-3.6a4.47,4.47,0,0,0-4,1c-4.69,5.48-10.31,9.13-17.59,9.82-3.31.31-6.66.31-10,.53-8.84.56-17.66,1.43-26.51,1.7-15.3.48-30,4.54-44.78,7.62-7.8,1.62-15.47,3.43-23.37.84a26.54,26.54,0,0,1-2.42-1.3c1.11-3.59,1.5-7.93,3.64-11.1,4.05-6,10.83-6.3,17.49-6.48a31.23,31.23,0,0,0,9.31-1.79,124.85,124.85,0,0,0,13.7-5.78C308,88.89,319.22,90.7,329,87s19.4-2.94,29.12-3.74c6.78-.55,13.67,0,20.49.33,1.33.07,2.59,1.6,4.15,2.63l-7,5,5.08,2.17-2.9,3.88c6.23-1.67,13.09.52,15.6-7.32.1-.31.79-.45,1.22-.65,4.61-2.22,13,2,13.68,7,0,.33-.08.72,0,1,5.15,10.79-3.43,17.73-7.29,26-.76,1.62-2.31,3-2.78,4.61-3.06,10.83-7.21,21.1-14.32,29.06-1.41.06-2.56.14-3.7.17-4.94.09-9.87.35-14.8.21-8.09-.23-16.18-1-24.26-1a55.48,55.48,0,0,0-13.15,2.15c-3.06.79-4.91,2.83-3.92,6.61,1.28,4.93,2.21,10,3.17,15,.87,4.52,3.73,6.71,8,6.16,8.69-1.12,17.31-2.71,26-4,12.72-2,25.46-3.81,38.15-5.92,6.82-1.13,13.56-2.69,20.33-4.06.74-.15,1.93-.67,2.15-.4,3.1,3.81,5.6.69,7.94-.81,4.25-2.72,8.27-5.8,12.39-8.73Z"/><path class="cls-1" d="M1124.8,193.83c-6.06-8.59-7.4-17.93-6.52-28,.46-5.2-.3-10.57-1-15.8-.46-3.41-2.07-5.53-6.54-4.38a62,62,0,0,1-16.79,2.35c-5.32-.14-8.38-6.6-5.59-11.22,3.19-5.27,7.37-9.4,14.4-9.61,6.08-.19,12.13-1.27,18.2-1.94,9.06-1,18.13-1.93,27.17-3,7.48-.9,14.92-2.18,22.42-2.92,3.1-.3,6.3.5,9.46.52,1,0,3.42.35,1.88-2.43-.27-.48,2.06-2.39,3.44-3.91l-2.89-.6,11.22-15.35.35.64c2.11-1.4,4.57-2.5,6.16-4.36.6-.69-.82-3.11-1.31-4.75l-5.56,3.69a56.26,56.26,0,0,1-2.71-5c-1.46-3.32-3.34-2.33-6-1.41-9.42,3.22-18.86,7.87-28.53,8.55-21.78,1.54-42.93,5.65-64,10.9-11.27,2.81-22.7,2.76-33.72-1.54a42.88,42.88,0,0,1-7.92-4.67c-1.49-1-1.14-7.48.52-8.38,4.42-2.38,8.76-5.23,13.51-6.63,12.89-3.79,25.86-7.41,39-10.15,10.19-2.12,20.67-2.81,31-4.1,5.89-.73,11.77-1.75,17.68-2,7.39-.33,14.81-.18,22.2.08,5,.18,9.56,1.83,15,.7,3.85-.81,8.67,3,13.06,4.71-.4.55-.8,1.09-1.19,1.64.41.41.83,1.18,1.25,1.18,5.59,0,4.39,5.62,6.78,8,4.41,4.41,1.43,8.29.6,12.5-.93,4.69-1.79,9.42-2.39,14.16-.5,4-.22,8-1,11.92a50.49,50.49,0,0,1-3.93,12.23c-.35.73-4.22-.23-6.89-.44-.39,1.18-.93,2.87-1.63,5l-2.84-3.1c-.52,1.29-.86,2.14-.68,1.71-12.92-3.13-25.12.5-37.38,2.18-7.11,1-14.22,1.9-21.78,2.91,1.46,3.19,3.09,5.94,4,8.91.61,2.07,0,4.46.24,6.69.74,8,4.38,11.15,14.12,10.88,7.75-.21,15.46-1.65,23.22-2.17,3.92-.26,7.89.48,11.84.49a63.36,63.36,0,0,0,8.69-.7c6.53-.87,13-2.12,19.58-2.77,14-1.38,25.92-7.41,36.7-16.08a20.05,20.05,0,0,1,2.71-1.23c-2.24,3.47-3.52,6.05-5.35,8.14-2.57,2.95-1.83,4.86.37,5.92,0,5.66.19,10.73-.11,15.76-.1,1.72-1,4.23-2.32,4.89-7.59,3.83-15.18,8-24.09,7.74-8.19-.21-16.41-1.05-24.57-.64-9.51.46-19,2.32-28.46,3-12.84.86-25.66,3.6-38.62,1.11C1127.86,193.28,1126.37,193.71,1124.8,193.83Z"/><path class="cls-1" d="M826.26,35.13c1-2.33,2.17-4.76,3.11-7.27.78-2.09,1.21-2.85,4.13-2.13,9.22,2.29,14.38,7.26,15.33,17,.49,5,1.43,10.79,4.35,14.51,5.33,6.79,5,14.71,6.08,22.08,2,12.88,2.27,26,3.13,39.07,1,15.77,2.14,31.55,2.79,47.34A83.18,83.18,0,0,1,864,184.09c-1.36,7.32-11.12,14.35-19.44,15.17-10.16,1-20.21,1.34-30.21-1.65-3.37-1-7.36,0-10.68-1.06-4.82-1.57-7.1-5.65-8.61-10.6-3.85-12.55-6.32-25.06-5.7-38.38.65-13.81-.35-27.69-.6-41.53-.25-13.43-.28-26.87-.74-40.29-.2-5.89-1.41-11.74-1.82-17.64a51.67,51.67,0,0,1,.37-11c.17-1.12,2.1-2.44,3.47-2.84,6.3-1.86,11.88,2.42,13.34,9.54q7.33,35.78,14.94,71.49c.92,4.34,9.74,9.28,13.66,7.38a6.92,6.92,0,0,0,3.28-5.08c.19-13.06.64-26.19-.32-39.19-.88-12-3.28-23.85-5.32-35.71C829.2,40.1,827.45,37.7,826.26,35.13Zm3.31,117-2.75.28c0,6.77-.19,13.55.15,20.31.06,1.37,2.07,2.64,3.19,4l1.18-1Z"/><path class="cls-1" d="M4,93.88c-1.23-.53-3.3-.79-3.82-1.83s.45-2.93,1.27-4.11c2.42-3.52,5.44-6.68,7.45-10.41.57-1.07-1.5-3.57-2.67-6.08,3.65-1.23,8-2.89,12.47-4.15C30,64.08,42.17,63.56,52.46,56.78c1.41-.92,3.59-.55,5.26-1.19,10.58-4.1,21.09-8.36,31.68-12.43,2.08-.8,3.89-4,6.75-1.08.3.31,2.16-.22,2.64-.86,4.32-5.68,12.1-5.22,17-9.76,1.69-1.56,3-3.83,5-4.7a88.44,88.44,0,0,1,14.92-5.18c4.14-1,9.85,6.17,8.5,10.37a5.32,5.32,0,0,1-3.4,3.05c-3.53.7-7.18.73-10.77,1.12-3.23.36-5.7.81-7.53,4.73-1.58,3.36-6.16,5.26-9.25,8-1,.89-1.47,2.38-2.73,4.52-1.15.55-3.6,1.55-5.88,2.86-4.83,2.77-9.57,5.71-14.47,8.65l13.23,15.5c5.66-4.87,11.49-9.75,17.16-14.81,8.09-7.22,15.84-14.85,24.22-21.73,3.29-2.7,7.74-4.22,11.88-5.62,7.17-2.42,14.83-3.62,21.71-6.63,9.25-4,18-9.29,26.89-14-.13-.4-.25-.81-.38-1.21l-5.78.74-.66-1.38c4.34-2.06,8.68-4.16,13-6.18,6.34-2.94,11.9,0,17.25,2.74,4.68,2.44,7,11.58,4,16-.79,1.14-3.61,1.34-5.44,1.2a17.43,17.43,0,0,1-5.57-1.93c-5.68-2.58-11.48-3.41-17.52-1.3l.87,1c-2,1.57-5,4.87-5.82,4.4-4.44-2.51-5.25,3.36-8.74,2,.13.53.27,1.06.41,1.58l6-1.14-5.6,5.09c.18.27.36.53.53.8l6.58-1.41c.15.27.29.55.43.82l-22.52,11c-.08.54-.15,1.09-.23,1.63,4.83,2.68,9.51,5.69,14.52,8A68.1,68.1,0,0,1,211,73.48c2.2,2.17,5.57,3.15,7.71,4.3l10.15,11.76-1.83,1.4,2.07,3-6.8,1.82c.47,1.58,1,3.4,1.8,6-4.21-2-8-3.82-11.76-5.56-8.05-3.67-16.25-7-24.14-11-8.66-4.38-17-9.32-25.53-14-.29-.16-.71-.52-.86-.43-6,3.55-14.67-4-19.72,5-1.7,3-6.18,4.32-8.13,7.25-7.54,11.3-20.73,17.38-26.86,30.11-2.15,4.47-6.39,9.14-10.81,11s-7.88,4.29-11.88,6.23c-2.72,1.33-6.61.25-10.25.25.36-1,.88-2.62,1.4-4.19l-.73-.57c-.55,1.07-1.1,2.15-1.66,3.22l-1-.77,1.78-5-6.74,2.24-1.32-1c2.61-4,5.24-8,7.82-12,3.46-5.4,7-10.72,10.15-16.32.61-1.08-.23-3.84-1.31-4.84-4.36-4-8.68-8.38-13.8-11.18-3-1.66-7.79-1.6-11.3-.63A118.65,118.65,0,0,0,28.65,92c-3.7,2.2-8.32,2.81-12.27,4.67-1.74.82-2.85,3-4.48,4.77l-.77-1.5-7.92,3.53C3.52,99.48,3.75,96.54,4,93.88Z"/><path class="cls-1" d="M935.73,184.43l-7.49,4.19-2.56-1.33c-2.79,5.58-11.12,9.86-18.14,8.21-5.95-1.39-11.55-4.36-18.16-7l4.22-3.71c-2.18-.41-3.88-1.19-5.39-.92-3.42.63-6.75,1.78-10.69,2.89-.28-3-.53-5.23-.7-7.51-.46-6.1-1.21-12.21-1.24-18.31,0-6.43.82-12.86.92-19.29.15-9.27-.46-18.56,0-27.81.67-12.46,2-24.9,3.19-37.33.83-8.63,1.95-17.23,2.82-25.85a5.72,5.72,0,0,0-.88-3.55c-5.56-7.83-2.64-17.86,3.7-23.26,5.33-4.54,13.57-1.88,15.9,4.94,2.44,7.12-1,19.59-5.52,23.4-.59,18.75-1.14,36.42-1.68,54.1h1.1l.6-1.36c.19.24.53.46.53.7q.11,3.5.12,7c0,7.36.56,8.11,7.4,10.19,3,.89,6,1.74,9.79,2.86.61-6.83,1.18-13.12,1.71-19.41.82-9.64,1.68-19.27,2.4-28.92.2-2.7,0-5.44,0-8.17-.06-6.48.39-13-.32-19.42s-2.63-12.38-3.86-18.6a10.14,10.14,0,0,1,0-5.13c2.32-6.28,5-12.43,7.47-18.63C922.19,4.27,932.2-.88,935.46.13a3.91,3.91,0,0,1,2.22,2.13c3.23,9.6,8.1,19.11,8.84,28.91.52,6.95.5,14.4.32,21.62-.12,4.94.6,9.91.34,14.84-.31,5.87-1.41,11.69-1.93,17.56-.77,8.63-1.23,17.3-2,25.94-.82,9.25-2,18.46-2.66,27.72-.18,2.82,1.53,5.72,1.56,8.6a112.66,112.66,0,0,1-.95,14.79c-.75,6-1.74,11.91-3,17.78C937.73,182.06,936.08,183.83,935.73,184.43Zm-33.37-10.66-1.08,0c-.1-2.44-.21-4.89-.32-7.33l-1-.13c-.94,4.32-1.87,8.64-2.82,13,17.65,2.08,19.86.26,17.51-14.22-.64,2.14-.8,4.36-1.27,6.51a13.29,13.29,0,0,1-1.61,3.1l-3-1.63-1.89,2.3c.56-6.73,1.27-12.75,1.48-18.77.13-3.73.24-7.08,3.08-10.07,2.42-2.56,1.62-10.51-.79-11.22a69,69,0,0,0-9.65-2c-2.89-.41-4.61.25-3.82,4.05,1.65,8,.49,16.41,4.89,24.15C903.84,164.67,902.36,169.64,902.36,173.77Z"/><path class="cls-1" d="M234.8,151.88l4.42,3-4.84,1c0,.29,0,.59.05.88l6.42.81c.06.35.11.7.17,1.06l-7,1.14,9.33,2.11c-3.8,2.8-1,11-8.86,9,.27,1.64.47,2.81.51,3-33,.74-66,.14-98.73,2.58-32.33,2.42-64,10.24-96.09,15.18.08.44.16.87.23,1.3-4-1.9-8.14-3.58-12-5.78-2.95-1.69-6-3.6-8.18-6.15-5.28-6.3-3.16-13.15,4.24-17,8.45-4.36,17.35-4.78,26.62-5.1,11.33-.4,22.58-2.88,33.92-3.47,18.9-1,36-8.24,53.45-14.32,9.57-3.34,12.12-11.65,9.74-22.38-1.11-5-.11-10.45.17-15.69a4,4,0,0,1,1.94-2.69c7.88-4.38,15.73-8.84,23.81-12.82,4.48-2.21,13.21-.5,15.74,2.87,4.74,6.34,6.56,11.44,3.06,20.25-1.47,3.72-4.71,7.26-3.52,12,.24,1-1.2,2.26-1.69,3.47-1.82,4.52-3.81,9-5.24,13.63-1,3.25.27,5.25,4.23,5.42,11.09.47,22.19,1,33.23,2,4.29.41,8.44,2.26,12.67,3.39a9.87,9.87,0,0,0,2.37,0C235,151.13,234.87,151.5,234.8,151.88Z"/><path class="cls-1" d="M1327.15,299.85c-10.38.68-21.12,1-31.76,2.18-15.05,1.74-30,1.15-45-.17-3.73-.33-7.54.3-11.31.27-2.39,0-4.82-.85-7.14-.59a35.12,35.12,0,0,0-7.34,2.21c-1.59.56-3.14,1.94-4.68,1.89-10.89-.32-21.78-1-32.68-1.41-12.29-.45-24.6-.61-36.89-1.16a68.21,68.21,0,0,1-13.67-1.82c-6.13-1.57-7.35-1.19-5.4-11.3.65-3.34,5.1-5.7,9.4-3.58,6,3,11.78.49,17.62.66a169.06,169.06,0,0,0,17.4-.77c7.06-.51,14.11-1.43,21.19-1.75,2.49-.12,5.09,1.62,7.56,1.44,8-.58,16-1.61,24-2.56,12.06-1.43,24.12-1.32,36.25-.92,14.7.48,29.48.43,43.9-3.79-.66-6.13-5.41-6.39-10.43-6.84a11.57,11.57,0,0,1,1.51-1.33c1.95-1,3.92-1.92,5.89-2.87-1.79-1.71-3.34-4.44-5.42-4.93-4.59-1.08-9.44-1.19-14.19-1.39-5.75-.23-11.52-.08-17.27-.23-1.09,0-2.15-.72-3.23-2.07h28.72c0-.51,0-1-.05-1.53H1285c.15-.82.32-1.74.77-4.23-5.44,8-12.25,3.26-18.07,4.17l3.94-.53c-9.07-3.87-18.17-6.72-27.88-4,0,.42,0,.84,0,1.27l10.43-1c.06.25.11.51.16.77l-13.76,3.21,4,2.38c-.09.59-.19,1.17-.29,1.75-15.42-.37-30.84-.89-46.27-1-8.57-.08-17.16.41-25.73.75-8.28.33-16.58.51-24.82,1.3a68.86,68.86,0,0,0-13.32,3.12c-2.69.82-5.84,1.41-4.49,6,1.13,3.87,1.06,8.09,1.37,12.17,0,.7-.64,1.45-1.17,2.58l-5.24-4.59-14.64,9.7c-6.11-8.11-10.81-17.23-7.69-29,2.07-7.77,4.47-15.15,10.12-21.16,2.67-2.84,5.28-3.38,8.67-1.31,9.09,5.59,18.71,8.41,29.64,6.78,7.52-1.12,15.24-.86,22.86-1.44,5.77-.43,11.53-1.87,17.26-1.68,13.88.44,27.73,1.74,41.6,2.36,5.61.25,11.27-.7,16.89-.54,7.78.22,15.56,1.58,23.31,1.35a227.52,227.52,0,0,0,27-2.76c11.22-1.7,19.64,2.25,24.63,12.12a114.89,114.89,0,0,1,9.46,24.15c.9,3.68-2.18,8.38-3.63,12.56C1329.21,295.39,1328,297.88,1327.15,299.85Z"/><path class="cls-1" d="M1031.72,281.32l4.78,2.12c.46,5.19-2.61,4.78-6.6,5-13.75.69-27.46,2.1-41.19,3.24-2.15.17-4.29.51-6.44.52-15.4.06-30.81.5-46.19-.06-17.31-.62-34.58-2.52-51.9-3.16a94.92,94.92,0,0,0-23.49,2C848,293.72,838,290.66,830,280.4c-2.61-3.32-6-6-8.61-8.49l-8.85,2.48c.64-3.65.66-6.85,1.78-9.59,4.55-11.09,14.62-11.47,24.48-12.07,5.07-.3,10.16-.47,15.22-.95,7.57-.72,15.09-1.91,22.66-2.46,14.9-1.07,29.81-1.85,44.72-2.73,2.63-.16,5.26-.3,7.89-.34,27-.35,53.9-.83,80.86-.86,4.71,0,9.42,1.92,13.92,2.9,1.48-6.24,2.78-11.73,4.27-18,5.06-.87,10,2.35,14.72,5.91,3,2.24,1.76,4.24-1.46,5.67l3.86,2.91c-.82,8.64-6.69,12.3-13.43,15.1-.16-1.69,1.62-5.14-2.81-3a12,12,0,0,1-6.42,1.42l2.56-2.4c-.23-.36-.46-.73-.7-1.09-3.3,2-6.56,4.05-9.92,5.95-1.69,1-3.53,2.34-5.31,2.34-15.46,0-30.93-.65-46.37-.24-24.76.65-49.5,1.95-74.25,3q-13.93.6-27.86,1.39a53.69,53.69,0,0,0-6.23,1.06l-.27,1.44c1.41.48,2.82,1.35,4.24,1.38,5.81.11,11.63-.3,17.42,0,22.76.95,45.51,2.9,68.27,2.92,23.55,0,47.1-1.76,70.65-2.82a14.67,14.67,0,0,0,4.24-1.24c3.94-1.48,11.22.1,12.88,3.6C1033,275.46,1032,278.28,1031.72,281.32Z"/><path class="cls-1" d="M1011.91,222.18l-4.06-.91-.41.72,11.26,10.25c-8.29,1-17.72,2.46-27.21,3.07-14.62.94-29.28,1.73-43.92,1.74-10.71,0-21.42-1.75-32.15-1.93-17.23-.31-34.48-.34-51.7.22-16.68.54-33.34,1.95-50,3-8.82.56-17.63,1.51-26.45,1.63-5.93.08-11.8-1.16-15.76-6.37.69-2.49,1.33-4.82,2.23-8.1-7.53.9-15,1.66-22.47,2.78-1.36.2-3.51,1.8-3.54,2.81-.11,3.5-4.2,7.35.93,10.72,1.11.74.45,4.07.73,6.2.35,2.7-1.85,2.56-3.29,3.71-3.39,2.68-6,6.39-9.09,9.94-.57-1.05-1.45-2.69-2.69-5l-2.3,6.89c-1.39-1.52-2.78-3-4.66-5.06-1,2.44-1.6,4-2.23,5.59l-1.49-.11c.88-16.73,1.71-33.47,2.68-50.21.37-6.28,1.16-12.54,1.57-18.82.08-1.21-.28-3-1.11-3.62-2.54-2-5.41-3.61-8.44-5.57,2.89-2,4.56-4.14,1.15-6.38,1.67-5.95,6.86-5.84,10.66-5.67,4.34.2,8.23,2.94,10.7,7.22,4.18,7.26,3.45,15.46,5,23.21A85.82,85.82,0,0,0,749,214h30.27l2.27,5-4,3.7.42,1.58c6.65-1.34,13.3-2.61,19.93-4,5.54-1.18,11-2.92,16.58-3.69,6.63-.92,13.36-1.07,20-1.53,9.62-.66,19.23-1.45,28.86-1.89,6.35-.3,12.72.07,19.07-.14,12.67-.44,25.33-1.43,38-1.49,7.62,0,15.25,1.26,22.88,2,2.63.24,5.25.56,7.88.72,16.4,1,32.82,1.84,49.19,3.19,4.13.34,8.12,2.39,12.18,3.65Zm-19.5,3.14c0-.55.08-1.11.13-1.66l-41.39-3c0,.5-.07,1-.1,1.5Zm-65.81-4.23c0-.52,0-1.05,0-1.57H897.45c0,.52,0,1,0,1.57Z"/><path class="cls-1" d="M321.09,237.54c.22,5.21,2.8,5.1,6.62,5,13.47-.46,27,.34,40.45-.39,21.14-1.16,42.23-3.22,63.35-4.8,6.78-.51,13.61-.46,20.38-1.13,4.89-.48,9.68-2,14.58-2.55,7.4-.8,14.93-2,22.25-1.35,5.63.5,10.78,3.89,14.29,9,1.84,2.65,2.57,4.82-.57,7.13-3.39,2.48-4.64,5.45-2.59,9.83a90.49,90.49,0,0,1,5.15,15c1.61,6,0,11.36-3.84,16l-8.05-2.1c-.73,6-4.61,8.39-11.57,7.77-12.75-1.15-25.48-2.72-38.26-3.21-8.26-.31-16.58,1.1-24.89,1.49a117.27,117.27,0,0,1-12.71-.26c-13.2-.8-26.4-2.45-39.59-2.39-12,.06-24.09,2-36.14,2.93a42.73,42.73,0,0,1-7.74-.33c-2.41-.24-4.8-.76-6.63-1.07l-5.33,12.41c-4-4.68-7.65-8.85-11.13-13.17a5.61,5.61,0,0,1-.66-3.27c0-6.46.29-12.75,3.71-18.68,1.63-2.82,1.51-6.6,2.58-9.82,2-6,3.65-12.31,6.75-17.74C312.8,239.42,317.41,239,321.09,237.54Zm157.58,36.59c-.3-3.88-.54-6.5-.69-9.13-.58-10.05-4.85-15.91-14.19-18.6a29.78,29.78,0,0,0-9.81-1.07c-8.23.48-16.44,1.39-24.65,2.18-13.13,1.28-26.25,2.54-39.36,4a92.68,92.68,0,0,0-10.11,2c-5.36,1.19-10.67,3.41-16,3.51a164.38,164.38,0,0,0-35.29,4.56c-3.3.79-5.71.73-8.48,4.51-2.93,4-3.37,8.11-4.77,12.12-1,2.88-.52,6.28-.71,9.66,4.76-2.76,8.28-6,12.34-6.95,17.88-4.24,35.41-9.86,54.52-7,12.21,1.82,24.94.81,37.41.22,14.52-.68,29-1.93,43.53-.07C467.57,274.69,472.93,274.13,478.67,274.13Z"/><path class="cls-1" d="M612.05,265.06c2.3,9.72,9.06,7.28,15.51,6.47,6.07-.77,12.24-.73,18.33-1.4,2.83-.31,5.52-1.74,8.35-2.15a38.24,38.24,0,0,1,6.53-.08c3.29,4.25,5.72,7.39,8.57,11.09l3-1c.15,2.7.26,4.9.42,7.77h5.55c-1.48,1.39-2.45,3.11-3.61,3.25-7.56.91-15.16,1.44-22.74,2.16-8,.76-16,1.71-24,2.37-11.88,1-23.77,2.07-35.68,2.52-6.66.26-13.5-1.65-20-.78-5.75.78-11,.89-16.38-1.05a12.3,12.3,0,0,1-8.51-10l3.15,3.47c-1.1-4.55-2.18-7.72,1-11.6,4-5,5.55-6.56,12.62-5.73,6.25.72,12.51,1.29,18.77,1.85,3.4.3,5.35-.62,7-4.42a40.78,40.78,0,0,0,3.75-16.48c0-5.26,1.76-10.52,2.79-15.76a27.8,27.8,0,0,0,.89-2.82c.72-8.2,1.62-16.41,1.94-24.63.16-4.28,2.3-6.77,5.48-8.88.14-.09.35-.07.47-.17,1.94-1.5,3.88-3,5.81-4.53,1.77,2.88,3.55,5.75,5.28,8.65.24.4,0,1,.27,1.45,1.9,3.26,3.88,6.16,2,10.53-.87,2,1.28,5.1,1.44,7.74.4,6.35.84,12.76-3.23,18.42-.45.63-.07,2.23.41,3.11C620.27,250.05,617.29,262,612.05,265.06Z"/><path class="cls-1" d="M492.31,90.49c2.22,5.33,5.52,10,5.83,14.88s-2.33,10-3.69,15c-6.36.4-3.6,5.46-3.94,8.47-.55,4.87-.15,9.84-.15,14.13l-2.28-3.69c-.69,1.76-1.33,2.65-1.36,3.56-.2,8-1,15.87,2,23.87,1.67,4.52.15,10.18.38,15.31a88.93,88.93,0,0,0,1.31,10.12c1.64,10.13-2.86,17.88-9.32,25-3.79,4.2-7.28,8.68-11.84,14.15.62-2.63.89-3.81,1.39-5.93-1.45,1.22-2.14,2.23-3,2.42s-1.91-.45-2.95-.75c-.37.74-.93,1.82-1.54,3l-5.49-6.6c-.15,1.7-.26,2.92-.39,4.35-1-1.72-2.51-3.14-2.71-4.73-.63-5.08-.65-10.23-1.16-15.33-.29-2.89-1.71-5.78-1.49-8.58a41.26,41.26,0,0,1,2.64-11.94c4-9.9,1.74-20.1,1.8-30.14,0-6.49-1.87-13-2-19.48-.08-3.39,1.26-7.06,2.8-10.18,1.72-3.48,4.41-6.48,7.13-10.34-.33,1.69-.52,2.68-.71,3.64l5.84-2c.68,3.52,1.22,6.35,1.77,9.18l.91,0c.22-.91.44-1.81.79-3.27l2.3,10,1.14-.15c-.37-6.93.17-14.08-1.35-20.75-1.82-8-.11-12.85,7.18-16C485.49,96.12,488.31,93.34,492.31,90.49Zm-8,33.2c-5.86,4.09-6.35,4.14-5.8,9.44.61,5.84,2.32,11.55,3.41,17.34.46,2.41.57,4.88.84,7.32l1.55-.06Z"/><path class="cls-1" d="M969.81,62.77l3.9-3.72-5.37-3.42c7.4-9.66,16.26-11.5,25.88-5.58,3.48,2.14,8.11,16.3,7.12,21.25A132.51,132.51,0,0,0,999.05,85c-.9,9.54-1.47,19.1-2.18,28.66l1.42.2,1-5.08c2.81,5.85,2.17,12,2.23,18.13,0,3.45-.22,7,.75,10.27.43,1.44,3.44,2.77,5.4,3,5.37.58,10.82.47,16.23.8a44.36,44.36,0,0,1,7.23,1.12c3.89.92,3.87,1,3.89,5.89l-6.46.79-.06,1,10.77,1.15c.62,4.71,1.14,8.6,1.77,13.33-5.37-.78-11.08-1.72-16.81-2.42a143.74,143.74,0,0,0-16.27-1.46c-5.84,0-8.39,2.53-9.47,8.14-.62,3.19-1.22,6.39-1.79,9.45l3.56,3.25-2.91,2.64c0,5.94,0,12.24,0,18.54,0,1.58.79,3.28.4,4.71a12,12,0,0,1-2.64,4c-4.08-2.43-2.76,2.37-5.7,3.26a14.77,14.77,0,0,1-11.07-9c-4.91-12-4.74-24.32-2-36.78.36-1.6-.26-3.43.17-5,.8-2.95,2.36-5.71,3-8.69,1.47-6.73,2.5-13.55,3.87-20.3.85-4.18,2.66-8.27,2.83-12.45.26-6.37,1.83-12.56.82-19.21-1.11-7.31-.1-15,.44-22.49.36-4.91-1.38-8.35-5-11.47C976.07,63.42,976.18,63.29,969.81,62.77Zm24.72,38.35,1.34-.18c0-3-.2-6.12.06-9.15.28-3.43,1.41-6.85,1.29-10.25-.06-1.48-2.2-3-3.67-4.21-.35-.29-2.55.71-2.61,1.27a18,18,0,0,0,.47,5.14c.27,1.51.89,3,1.14,4.47C993.27,92.5,993.88,96.81,994.53,101.12Z"/><path class="cls-1" d="M1297,91.13c1.25.57,2.47,1.46,3.77,1.64a15.81,15.81,0,0,1,12.63,21c-.81,2.12-1.33,3.72-3.05,5.23-.75.67-.31,2.7-.43,4.39-2.85,1-2.86,1.68-1.54,5a21.76,21.76,0,0,1,1.36,7.7c.11,6.82-.1,13.64-.2,20.46-.08,5,.09,10.13-.32,15.16q-1.39,17.16-3.3,34.27a22.59,22.59,0,0,1-2.68,7.68c2.16,9.07-1.14,16.64-7,24.15-.75-1.21-1.26-2-2-3.25l-5.87,4c-2.85-5.59-7.86-5-12.75-4.26.68-6.88,1.25-13.19,1.93-19.49a15.86,15.86,0,0,1,1.06-5.28c4.62-9.34,5.59-19.46,6.68-29.59.71-6.58,3-13.28,2.26-19.66-1.37-11.82,7.07-20.62,8-31.58.35-4,2.42-7.8,3.7-11.7l-2-.9-2.7,4c-2.19-2.69-7.77-3.07-10.52-1.1-3.76,2.69-7.81,5-11.73,7.44l-.77-1c1.85-2.43,3.76-4.81,5.53-7.3,1-1.33,2.19-2.74,2.42-4.25,1.31-8.61,9.32-13,12.63-20.34.71-1.58,2.87-2.5,4.37-3.72Z"/><path class="cls-1" d="M518.47,177.66c6.7-1.51,13.55-3.19,20.45-4.57,7.1-1.43,14.28-2.45,21.39-3.88,6.26-1.26,12.43-3,18.7-4.2a78.8,78.8,0,0,1,12.35-1.24c13.75-.36,27.5-.55,41.25-.75a59.21,59.21,0,0,1,9.33.29c4,.59,8,1.69,13,2.79l-2.77,4.18,3.47,2.25c0,.19-.07.38-.11.57l-6-1.49-.73.93,12.63,9.9c-5.31-.81-10.64-2.13-16-2.34-10.14-.39-20.31-.18-30.46-.15-5.56,0-11.13-.12-16.66.32-9.52.76-19.05,2.9-28.49,2.49-4.61-.19-8.62.73-12.79,1.53-5.41,1-10.62,3.52-16,4-8.67.79-16.92,5.36-25.95,2.9-3.32-.9-3.65-5.29-.56-8.83C515.86,180.84,517.15,179.24,518.47,177.66Z"/><path class="cls-1" d="M672.51,227.75l2.07-5.31-.55-.34-4.89,5.47-2.92-3-2.58-8.5-5,6.41c2-7,4.12-13.12-4.29-16.07,11.26,1.31,13.77-6.77,15.57-14.58.59-2.53-2.07-5.81-3.53-9.47,3-1.61,6.92-4.59,11.35-5.91,4.77-1.43,12.19,3.34,14.44,8,1.2,2.47,2.5,4.89,3.64,7.11-4.31,5.76-9.25,11.27-12.91,17.53s-5.06,13.58-9,19.64Z"/></svg>