<svg id="Layer_1" data-name="Layer 1"
    xmlns="http://www.w3.org/2000/svg" viewBox="0 0 1415.9 269.6">
    <defs>
        <style>.cls-1{fill:#fff;}</style>
    </defs>
    <title>Chp3Title</title>
    <path class="cls-1" d="M883.6,252c3.54.5,7.07,1.37,10.63,1.46q29.21.75,58.42,1.15c4.2.06,8.41-.56,12.62-.66a4.56,4.56,0,0,1,3.3,1.13,50.7,50.7,0,0,1,5.58,8.61c1.62,3.39-.48,5.76-3.67,5.84-8.1.19-16.21-.22-24.31-.39-17.61-.36-35.23-.62-52.83-1.14-6-.18-12.28-.12-17.91-1.86-3.6-1.12-7.16-4.83-9.06-8.29-1.69-3.1-3.1-5-6.62-5.44-4-.51-6.94-2.11-5.93-7.08,1.3-6.35,3.84-8,9.12-7.78,13.43.68,26.89.94,40.33,1.14,9.83.14,19.67.1,29.49-.25a125.07,125.07,0,0,0,15.24-2c1.53-.24,3-1.17,5-2-6.14-.7-11.46-1.24-16.76-1.95-3.26-.44-6.47-1.37-9.73-1.68a130.47,130.47,0,0,0-13.26-.61c-8.94,0-17.88.28-26.82.53-3.48.1-7,.36-10.43.75-9.86,1.08-17-3.74-24.07-10.86,9.35-1.78,18-3.81,26.76-5,10.49-1.41,21.07-2.23,31.64-3,3.58-.25,7.24.47,10.86.71,6.1.4,12.22,1.12,18.3.9,1.5-.06,4-3.19,4.1-5a176.72,176.72,0,0,0-.29-19.79c0-.5-2.16-1.37-3.25-1.28-9.78.78-19.55,1.74-29.32,2.69a4.93,4.93,0,0,0-1.7.68,17.81,17.81,0,0,1-23.5-6.65,44.91,44.91,0,0,0-3.89-4.75c1.41-2.47,3.16-5.78,5.17-8.93,1.73-2.72,3.58-4.54,7.64-3.31,2.68.82,6-.56,9.45-1-.46,1.29-.92,2.57-1.69,4.74,9-.34,13.35-7,18.76-13.39.32,2.21.45,3.11.59,4.1.54-.1,1.1,0,1.43-.29a36.67,36.67,0,0,0,14-20.58c2.71-10.38,4.84-20.94,6.83-31.49,1.4-7.41-1-10.66-8-12.7a18.3,18.3,0,0,1-5.86-2.59c-6.21-4.64-12.59-3.93-19.17-1.17a76.8,76.8,0,0,0-7.31,3c-6.13,3.38-12,1.21-17.6-1-6.78-2.73-8.1-12.23-3.08-17.48,1.42-1.48,1.72-4.12,3.24-5.38a7.65,7.65,0,0,1,6.29-1.36c1.38.14,3,.8,4.09.35,8.49-3.29,17.19-5,26.3-4,5.39.53,10.76,1.34,16.16,1.5,1.25,0,3.44-1.88,3.72-3.21,3.26-15.47,9.27-16.58,22.13-14.94,2.58.33,5.16,4.59,6.82,7.55a31.56,31.56,0,0,1,.06,31.62c-2.53,4.53-.4,7.44-1.72,10.92l1.49.17V93.72c4.1,24.08,4.72,102.28-4.62,114l-1.61-2.79a18.8,18.8,0,0,1-.53,3.45c-1.44,3.85.06,5.44,3.56,7.67,7.31,4.67,10.29,11.34,4.68,20.78-.33.56-1.18.94-1.28,1.49-1.45,8.64-8.4,8.11-14.47,8.36-12.09.5-24.21.27-36.29.88-12.36.62-24.69,1.89-37,2.87Zm87.82-144.84-2.46-.25c-.44,1.43-1.33,2.89-1.26,4.3.6,11.7,1.36,23.4,2.15,35.09a26,26,0,0,0,.93,4.12l.64-.13Z"/>
    <path class="cls-1" d="M261.17,176.93c-2.16,8.09,3.71,14.18,6.27,21.72-6,3.2-.54,9-2,13.64L259,209.5c-.24,4.16-.46,8.07-.76,13.19l-6.38-6.36v7.26c-1.1-1.89-1.85-3.17-2.55-4.39l-3,5.06c-7.59-5.75-10.48-13.9-12.52-22.27-2.37-9.72-3.5-19.77-6.2-29.39-2.8-10-6.89-19.61-10.3-29.44-4.05-11.71-8.44-23.09-9.24-35.95-.85-13.65-2-27.27-2-41,0-3.41.63-6.82,1-10.23l-1.61-.35c-1.19,4.88-2.73,9.72-3.48,14.67-1.35,8.82-2.16,17.72-3.31,26.57-1.67,12.88-3.61,25.72-5.11,38.61-1.18,10.19-1.76,20.45-2.82,30.66-1.83,17.48-3.85,34.94-5.76,52.41-.72,6.58-1.15,13.21-2.14,19.76-.45,3-1.93,5.78-3.29,9.62l-12.29-14c0-.11.44-1.43.91-2.95-5.61-2.37-3.79,5.58-7.91,5.21-1.77-5.82-2.35-11.4,0-18,2.61-7.37,2.53-15.67,3.64-23.57,1.3-9.25,2.76-18.48,3.88-27.75.89-7.36,1.24-14.78,2.08-22.15.87-7.57,1.35-15.29,3.24-22.63,3.12-12.16,4.39-24.62,6.88-36.86a236.11,236.11,0,0,1,16.59-51.95c4-8.7,11-12.43,19-9.61a4.38,4.38,0,0,1,1.35.62c5.65,4.91,11.5,9.63,16.79,14.91,1.43,1.43,1.58,4.56,1.62,6.92a113,113,0,0,1-.57,13.39c-.58,6-1.24,12-2.34,17.86-.87,4.68-2.06,9.18.86,13.59a2.49,2.49,0,0,1-.14,2.2c-1.83,2.83-1.43,4.89,1.5,6.78a6.49,6.49,0,0,1,2.09,3.6c1.27,4.56,2.4,9.17,3.44,13.78.49,2.15.64,4.38,1,6.56a12.08,12.08,0,0,0,.56,2.32c4.72,13.19,9.49,26.37,14.16,39.58.88,2.46,1.17,5.13,2.14,7.55C258.45,174.63,259.84,175.51,261.17,176.93Zm-89-6.1,1.35.3q-.37-6.1-.77-12.19l.57,0,.88,2.91c1.27-9.61,2.45-18.47,3.6-27.34.51-3.88,1-7.76,1.43-11.65l-2.9-.38a425.61,425.61,0,0,0-6.49,55.71C170.87,175.06,171.55,173,172.22,170.83Z"/>
    <path class="cls-1" d="M399.3,68.45c-.33,3.38-.1,6.27-1,8.74-.81,2.19-3,3.84-4.37,5.84-1.18,1.69-2.76,3.45-3.06,5.35-1.36,8.68-1.18,17.78-3.78,26-2.43,7.67-3.07,16.29-8.75,22.79-5.44,6.21-5.67,13.69-5.66,21.41a162.1,162.1,0,0,1-1.27,17.86,35.8,35.8,0,0,1-2.1,8.57c-1.8,4.8-4,9.45-5.56,13.17l-10.39-.49c-4.65-7.36-7.55-16-5-26.06,1.06-4.14,1-8.55,1.57-13.38-16.49,5.89-27.13,22.61-21.18,31.3-1.32,3.92-2.42,7.16-3.64,10.79l-2.73-2c-.36,2.8-.7,5.33-.9,6.88-2.46-.32-5.66-1.54-6.36-.69-1.9,2.32-2.74,5.51-4.42,9.27l-6.33-4.38c-.29,1.5-.59,3-1,5.36-.47-2-.78-3.32-1.12-4.76L296.15,214c0-3.51,1-6.88-.18-8-4.66-4.35-1.31-9.46-2.1-14.09-.91-5.3-2.2-10.75-1.78-16,.6-7.68,2.62-15.25,4-22.88,3-17.4,2.27-35,1.42-52.44C297.09,93,294.07,85.5,292.08,78c-.26-1-1.47-1.72-2.3-2.52-1.45-1.39-3.92-2.6-4.14-4.15s1.43-3.77,2.64-5.42,2.79-2.83,4.91-4.9c4.59,2.89,12.46.39,16.69,6.77,3,4.5,7.55,9.56,7.33,14.18-.3,6.39,4.51,10.22,4.74,15.75.14,3.36-.15,6.74,0,10.09.36,6.74.58,13.52,1.55,20.18.34,2.35,2.7,4.4,4.78,7.56,5.37-4.88,11.92-9.68,16.94-15.76,4-4.84,6.06-11.24,9-16.92,3.11-6,6.38-11.85,9.36-17.87a35.86,35.86,0,0,0,2.13-6.85,73.63,73.63,0,0,0,1.8-8.15c.49-3.64,3-3.08,5.46-3.12,4.07-.07,8.51.64,12.12-.73C390.83,64,395.1,65.45,399.3,68.45ZM384,100l1.08.52,5.14-15.24-1-.45L385,88a10.53,10.53,0,0,1,.12,5.44C384.7,95.6,384.34,97.8,384,100Z"/>
    <path class="cls-1" d="M112.59,126.43c-2.18-.42-4-.33-5.33-1.11-6.66-4-9.06-3.84-14.38,1.53-2.38,2.4-6,2.17-6.67-.88C84.14,116.16,79,106.73,82,96.17a7.36,7.36,0,0,0-.29-3.9C77.91,79.8,74,67.37,70.11,54.92c-1.46-4.67-4.29-5.71-9.14-4.66C52.46,52.1,44.56,54.82,37.41,60c-3.93,2.83-8.64,4.54-12.88,7a23.62,23.62,0,0,0-5.87,4.45C13.6,77.05,8.12,76.59,3.94,70.06c-6.07-9.49-5.46-16.83,4.17-25.32C15,38.69,21,31.61,28.06,25.92,37.8,18.12,46,7.94,58.55,4.15c3.31-1,7.21-.32,10.3-1.66C77.13-1.08,85-.67,93.13,2.8,96,4,99.55,3.6,102.81,3.93l12.63,16.62c-.87,1.31-2.14,3-3.13,4.79-1.55,2.85-4.35,5.65-.79,9,.36.34.27,1.28.22,1.93-1.24,15.41,4,29.67,7.6,44.27,2.65,10.91,4.63,22,6.66,33.05.52,2.84.08,5.85.08,9.4l-3.69-2.1-2,5.29-1.13,1.15c-.47-1.3-1-2.6-1.59-4.34-.72,2.53-1.16,4.1-1.61,5.67Z"/>
    <path class="cls-1" d="M763.62,231.5H751.89c5.62,13.49-3.57,28.18-17.92,30.14-3.84.52-7.62,2.21-11.18,3.88-5.34,2.5-10.33,1.21-14.2-2.12a13.08,13.08,0,0,1-4.23-14c1.09-4,1.7-8.09,2.55-12.25l-4.08-1.89,2.07-2.67c-6.86-.89-28.3,3.6-29.67,6.43-3-2.92-20.45.35-22.09,3.32l-30.3,3.89c-.31-.56-.62-1.11-.92-1.67l5-2.94-9.44-4.32-1.07,1,4,5.88c-3.75.41-5.65-.79-7.53-4.78a27,27,0,0,0-1.94-3.92c-3.77-5.42-2.74-9.06,3.27-12.87,5.08-3.22,10.48-4,16.41-4.45s11.59-2.51,17.2-4.42a125.53,125.53,0,0,0,16.46-6.9c6.23-3.2,6.77-9.79,7.29-15.64.91-10.18,1-20.44,1.32-30.66.36-11.57,1.35-23.19.58-34.7-.35-5.31,1.5-8,4.91-10.75a6.82,6.82,0,0,1,2.95-1.3c2.71,4.07,7.66-2,9.83,2,2.8,5.17,6.23,10.52,7,16.12A188,188,0,0,1,699.62,164c-.1,3.25-1.16,6.58-.43,10s1.64,7,2.07,10.55c.14,1.18-.92,2.52-1.48,3.76-.26.56-1,1.14-.9,1.6.78,4.36,1.61,8.73,2.68,13,.14.58,1.72,1.18,2.6,1.14,10.39-.52,20.76-1.19,31.15-1.75,4.76-.25,9.53-.49,14.3-.43,4.59.05,9.17.48,13.76.8.4,0,.78.42,2.74,1.54l-13.35,5.26c3.71,0,7.66-.09,11.61.08.81,0,1.58,1,2.36,1.59-.65.49-1.24,1.23-2,1.44a83.39,83.39,0,0,0-11.12,3.66H764.1c.06.34.12.68.17,1l-9.75,3.9.27.92,7.23,1.55-5.76,4.65,7.55,2C763.74,230.7,763.68,231.1,763.62,231.5Zm-32.39,3.06c-3,.48-4.59.77-6.19,1-4.69.66-9,9.24-6.25,13.18.81,1.19,3.38,2.27,4.62,1.86a41.77,41.77,0,0,0,10.72-5.16c1.54-1.09,3.09-4.55,2.45-5.82C735.4,237.27,732.59,235.75,731.23,234.56Zm-62.31-1.18-.42-1.81L644,237.35l.33,1.46Z"/>
    <path class="cls-1" d="M792.65,57.1c1.29,1.19,2.2,2.57,3.48,3.11,3.61,1.52,6.9,6.17,5.23,9.5-2,4,.38,6.5,1.67,9.3,1.14,2.49,3.2,4.35,1.28,7.47-.46.76,1,2.66,1.49,4,1,2.71,2.36,5.37,2.86,8.18,1.54,8.6,2.18,17.4,4.31,25.83,1.13,4.47,3.16,8.44,2,13.34-.41,1.72,1.72,3.91,1.85,5.94.41,6.14.41,12.31.57,18.46.19,6.69.36,13.38.58,20.07.1,3.31.3,6.61.49,10.56a29.62,29.62,0,0,0,4.74-1.57c6.68-3.76,12.82-8.24,17.52-14.4a6.22,6.22,0,0,0,.95-3.73c-.25-7-.45-13.94-1.06-20.88-.72-8.25-1.88-16.47-2.75-24.7-.39-3.6-.16-7.29-.87-10.8-2.7-13.35-5.41-26.71-8.67-39.93-1.12-4.52-3.65-8.77-6.07-12.81-.52-.86-4.4-1.06-5-.25-3.25,4.16-7.09,1.35-10.31.86-1.61-.24-4.07-4.06-3.69-5.7.44-1.92,3.39-3.51,5.55-4.72,2.68-1.5,5.94-2.06,8.47-3.75,7.45-5,19.59-2.44,23.62,5.6,5.34,10.63,10.27,21.47,15.37,32.23l-1.3.7,3-.26-2.59,7,1.38.55c.58-1.12,1.15-2.24,2.16-4.21.45,2,1.37,3.73.89,4.29-4.32,5,1.52,7.77,2.28,11.54l-3.15,2.23,3.61.86c.11,1.25.25,2.81.48,5.34l-2.87-4c-.42.48-1,.88-1,1.19.88,6.71,1.76,13.43,2.79,20.12.71,4.58,1.69,9.11,2.5,13.68,1.68,9.56,3.53,19.09,4.91,28.69a68.75,68.75,0,0,1,.64,15.49c-.15,1.77-3.31,4.78-4.94,4.68-9.8-.6-16.65,5.31-23.72,10.29-9.44,6.66-18.69,13.26-30.74,14.14-3.08.22-7.51-4-7.16-7.92.49-5.35,1.68-10.64,2.15-16,.21-2.56-.66-5.19-.87-7.8-1.79-21.68-3.27-43.36-7.55-64.77-1.42-7.06-.79-14.51-1.62-21.72a112,112,0,0,0-3.11-14.26c-1.07-4.27-2.35-8.48-3.57-12.71a39.74,39.74,0,0,0-1.65-5.16C783.09,61.43,783.56,60.32,792.65,57.1Z"/>
    <path class="cls-1" d="M713,156.71c.67,1.18,1.13,2,2.1,3.68,1-3.62,2-6.51,2.62-9.48,3.09-15.27,6.18-30.54,9-45.86a29.69,29.69,0,0,0-.09-10c-.22-1.33-2.19-3-3.67-3.41-7.38-2.16-15.09-3.38-22.26-6a53.8,53.8,0,0,0-27.47-2.89c-15.54,2.39-30.85.47-45.69-3.69-4.48-1.26-8.7-6.22-11.35-10.52-3-4.83,1.45-10.09,8.43-10.89,4.36-.5,8.81-.28,13.18-.7q19.73-1.92,39.41-4.11a105.49,105.49,0,0,1,29.32,1.06c7.31,1.21,14.61,2.47,21.85,4,2.16.46,4.13,1.88,6.14,2.94,4.18,2.2,8.2,4.74,12.52,6.63,7.23,3.16,13.3,14.51,11.2,22.26-1.15,4.26-3.42,8.25-4.33,12.55-2.45,11.56-4.84,23.16-6.44,34.86-.87,6.33.18,12.9-.08,19.34-.49,12.59-5.09,23.71-12.79,33.6-1.88,2.42-3.72,4.87-6.05,7.93-1.39-4-7.24-3-7.1-8.08,0-.23-3-.54-5.24-.91l-1.11-2.43c-2.53-.31-5.73.1-6.31-.94-1.25-2.25-2.53-6.43-1.39-7.74,4.56-5.27,3-11.68,4.48-17.44C712.17,159.36,712.53,158.27,713,156.71Z"/>
    <path class="cls-1" d="M1231.3,220.76c-5.31-6.1-11-11.91-15.83-18.38-4.42-5.95-5.59-13.23-5.71-20.62,0-2.24-.38-4.47-.58-6.71l-1.39,0-1.32,7.67-.93-.14c.43-3.8.28-7.78,1.41-11.35,2.63-8.32,6-16,13.6-21.69,7.28-5.51,14-11.73,21.83-16.62,3.75-2.34,6-6.93,9.47-9.9,2-1.74,5.29-3.6,7.6-3.19,6.91,1.23,13.65,3.48,20.42,5.47,2.79.82,6,1.41,8.12,3.14a148.14,148.14,0,0,1,14.34,13.22c3,3.08,5.22,6.83,8,10.52l-1.27.61c3.58,6.39,9.44,11.52,7.23,20.49-1.73,7-1,14.63-2.27,21.82-.52,2.91-3.34,5.44-5.23,8.06-1.61,2.23-3.43,4.31-5,6.54-.32.43,0,1.27-.13,1.88-.25,1-.45,2.7-1,2.85-5.2,1.38-6.29,2.53-7.33,8.34-.09.5-.81,1.26-1.23,1.26-3.54,0-7.1-.06-10.62-.4-2.64-.26-5.39-1.77-7.83-1.3-4.32.81-8.51,2.55-12.65,4.18-8.37,3.29-16.62,1.23-24.91-.27Zm56.4-58.16,1.61-1c-2.12-3.35-3.76-7.14-6.43-9.94-7.15-7.5-16.85-5.47-25.8-6-.11,0-.23.23-.36.32-4.76,3.24-9.94,6-14.12,9.9-2.18,2-2.88,5.82-3.74,9s0,6.75-1.58,9.15c-5.17,8.1-1.07,14.71,2.91,21.09,2.7,4.34,7.5,7.24,12.7,6.13,5.85-1.26,12.24-2.84,16.85-6.32,8.51-6.42,14.17-15.22,14-26.63,0-3.34,0-6.69,0-10l1.06-.05ZM1232,210.66c-9.22-9-13.72-19.37-16.68-31.41C1214,189.68,1222.62,206.22,1232,210.66Zm55.43-76.56.74-1.5c-3.53-1.23-7.07-2.45-11.81-4.08C1279.1,132.92,1279.1,132.92,1287.39,134.1Z"/>
    <path class="cls-1" d="M82.8,182c8.32-4.07,16.61-8.05,24.83-12.17a92.14,92.14,0,0,0,8.15-4.76c5.76-3.71,10.86-2,16.95.13,4.13,1.41,6.42,5.5,11.78,5.45-1.71,5-3.26,9.62-5.43,16.06-4.81,2-11.45,4.81-18.08,7.64-17.48,7.46-35.08,14.65-52.37,22.51-11.25,5.11-22,11.26-33.09,16.78a8.9,8.9,0,0,1-5.32.75c-5.37-1.09-10.65-2.6-17.12-4.24,6.43-5.9,12.25-11.77,18.64-16.94S45.18,203.47,52,198.71c3.52-2.47,3.77-6,3.47-9.76-1.21-15.4-2.2-30.82-3.74-46.19-1.31-13.14-3.08-26.24-5-39.3a26.22,26.22,0,0,0-4-10c-2.15-3.33-1.32-5.61,1.72-6.72a94.09,94.09,0,0,1,14.88-4c2.12-.4,4.48.53,6.88.88a17.72,17.72,0,0,1,4.26-1.78,3.42,3.42,0,0,1,2.75,1.56c.37.69-.29,2-.57,3-.49,1.74-1.66,3.54-1.46,5.18,2.08,16.79,4.43,33.54,6.62,50.31C79.46,155,81.05,168.1,82.8,182Z"/>
    <path class="cls-1" d="M442.49,182.71h5.72c-.15-1.38-.28-2.54-.38-3.48l7.67-.55c-.12,1-.8,2.83-.34,4.27.58,1.84,1.71,4,3.26,4.94,3.56,2.18,7.53,3.51,6.87,9-.48,4-.25,8.09-.45,12.14-.18,3.83-.67,7.64-.72,11.47a70.23,70.23,0,0,0,.67,8.43c.42,3.83,2.22,5.78,6.45,5a28.33,28.33,0,0,1,10.48-.11l-7,1.93c.06.44.11.89.17,1.33,9.4-.94,18.82-1.77,28.2-2.87,3.93-.46,7.78-1.63,11.7-2.28,4.93-.81,8.86-1.55,10-8.18,1-6.08,5.64-11.51,7-17.6,1.84-8.2,2.37-16.74,2.86-25.17.25-4.4,2.23-7.92,5.7-9a11.84,11.84,0,0,1,11.57,2c5.81,4.7,10.09,8.88,6.07,17.14-1.55,3.19-.85,7.45-1.29,11.21-.35,3,.92,4.65,3.9,5.25,6.62,1.31,13.4,2.18,19.74,4.33,4.47,1.5,9.51,2.94,12.35,7.44a4.61,4.61,0,0,1,.26,2.61,30.92,30.92,0,0,1-.67,3.45l-3.74.4c-.58,6.18-.72,5.87-6.84,5.12-8.36-1-16.8-1.25-25.92-1.87-.37,7.18-.67,13.65-1,20.12-.07,1.33-.44,2.63-.62,3.95-.63,4.63-3.4,5.94-7.72,5.21-3.61-.62-7.27-2.6-10.91.38-.32.26-2.89-1.48-3.72-2.74-1.9-2.89-3.36-6.06-5-9.2l-4.8,1.89-.4-.73,4.1-2.68c-7.84.55-14.34,1.15-20.84,1.43-21.79.94-42.61,7.43-64,10.92-4.72.77-9.29,2.71-14,3.13a25.26,25.26,0,0,1-11-1.69c-1.63-.63-2.33-3.69-4.2-7,10.31-4.56,19.58-9.32,29.33-12.72,5.06-1.76,5.14-5.1,5.28-8.69.4-10,.53-20,.5-30a41.71,41.71,0,0,0-1.38-9.25C444.71,188.61,443.58,185.92,442.49,182.71Z"/>
    <path class="cls-1" d="M1142,70.42l1.2,1.42,2.65-4,7.17,1.91c2.11,2.42,4.86,5.58,8.08,9.26-5.57,3.82-8.39,9-5.82,16.15l1.57-.87c.58,13.13,1.4,26.5,1.69,39.87.21,10.19-.22,20.39-.46,30.59-.08,3.17-.47,6.33-.76,10.13,11.75-1.49,22.33-3,33-4.11,4.78-.52,7.77,2,8.79,6.67.15.65.36,1.28.54,1.91,2.3,8.11,1.82,8.88-5.54,13.54-6.66,4.22-14.17,5.23-21.63,6.62-5.67,1.06-11.53,2.13-14.81,7.6-1,1.71-1.78,4.61-1,6.19,2.87,6.06,4.87,11.8,1.24,18.35-1,1.87-.5,4.57-.84,6.86a114.81,114.81,0,0,1-2.4,13.5c-.45,1.61-2.74,2.71-4.9,4.69l-4-5.07c-.72,1.09-1.37,2-2.32,3.46-.79-2.25-1.36-3.87-2.18-6.17-.31,1.58-.5,2.56-1,4.95-.81-3.62-1.34-6-2-9.15-.43,2.26-.73,3.8-1,5.41l-4.69-1.12c.55-12.48,1-25.24,1.7-38,.39-7.46,1.19-14.89,1.62-22.35.72-12.27,1.57-24.54,1.8-36.82.15-7.77-.61-15.57-1.19-23.34-.79-10.47-.71-20.79,2.77-30.89.65-1.88.1-4.13.33-6.19C1140.24,84.44,1141.11,77.48,1142,70.42Z"/>
    <path class="cls-1" d="M1017.9,201.66l1.3-4v28.71l-1.55,0V210.79l-.5-.07c-1,6.32-1.88,12.66-3,19-.58,3.37-1.46,6.69-2.27,10-.56,2.33-2.59,4-1.35,7.23.72,1.9-2,5.37-3.68,7.73-.53.73-2.89.12-4.4.3-1.83.59.57-4.88-3.1-1.95-.43-1.2-1.45-2.54-1.19-3.56.89-3.62,2.79-7.06,3.29-10.7,3.17-23.23,6.2-46.47,8.93-69.76.63-5.35-.14-10.85-.11-16.28a56.47,56.47,0,0,1,.57-9.66c1.85-10.41,4-20.76,5.94-31.14,2.86-15,10.52-27.77,19.17-40.38,4.12,3.3,3.24,7.68,2.31,11.46-2.23,9.08-5.07,18-7.67,27a14.7,14.7,0,0,1-1,1.69c.39-3.31.68-5.72,1-8.76-1.12.67-1.8.85-1.84,1.13-1.27,8.24-3.29,16.47-3.5,24.75-.25,9.81,3.39,18.36,9.86,26.36a129.81,129.81,0,0,1,11.34,17.41c2,3.54,2,8.18,3.38,12.15a106.37,106.37,0,0,0,5.08,11.09c2.24,4.6,4.34,9.29,7,13.68a119.88,119.88,0,0,1,9.16,19.25c.19.5,1.29.61,1.9,1,1,.67,2,1.43,3.63,2.67l-4.82,1.6,1.69,3.83-8.58,3.07a39.24,39.24,0,0,1-1.41,6.47,3.62,3.62,0,0,1-3,1.76,5.22,5.22,0,0,1-3.13-2.6c-2.26-4.73-4.14-9.63-6.33-14.39-3-6.49-6.07-12.92-9.21-19.33q-6.86-14-13.85-27.93c-2.28-4.56-2.9-4.6-6.67-.15l-.46-2.32c-.11-.6-.2-1.2-.18-1.09C1019.88,187.26,1019,193.76,1017.9,201.66Z"/>
    <path class="cls-1" d="M1383.16,103.19c4.22-2.38,5.9-5.79,6.88-10,1.83-7.83,6-9.61,13.48-6.42a20.65,20.65,0,0,0,3.3.7c-.36,5.74-.75,11.77-1.07,16.81l-1.7-2.91c-3.1,9.84,3.27,17.93,3.71,26.74l.52.59,1.49-1.73c-4.56,1.54,8.4,7.82-2,9.26.35,2.44.69,4.88,1,7.32l.9-.05c.12-1.22.24-2.44.4-4,2.28,4,4.66,7.35.28,11.56-1.22,1.17.26,5.15.53,8.22l2.28-3.15c.64,5.41,1.16,10,1.74,14.52.29,2.34.89,4.66,1,7a53.89,53.89,0,0,1-.37,8.42c-1.13,9.32-2.82,18.6-3.48,27.95-.45,6.49.82,13.1.64,19.63-.2,7-1.19,14.06-1.84,21.07l-7.08-6c-1.94,9.46-9.13,8.86-15.32,9.66-1.23.16-3-1.29-4-2.45-7-8.2-8.79-17.35-4.77-27.57a65,65,0,0,0,3-10.27c3-13.82,5.88-27.64,8.57-41.51a47,47,0,0,0,.36-9.65c-.16-9.52-.36-19-.69-28.54-.26-7.9-.06-15.89-1.36-23.62C1388.85,110.69,1385.4,107.08,1383.16,103.19Z"/>
    <path class="cls-1" d="M489.18,224.41l-.86-4.87c-1.18,3.16-1.9,5.09-2.86,7.68-.46-1.82-.75-3-1-4.09l-1.1-.8-2.94,5.76L478.83,227c.2-3.66.83-7.36.54-11-1.4-17.94-2.49-35.93-4.76-53.77-1.86-14.6-5.9-28.92-5.93-43.8,0-4.1-1.28-6.26-6.6-6.49-13.48-.59-26.3.89-38.45,7-3.31,1.66-9,.13-10.26-2.59-1.32-2.91.9-7.81,4.2-9.38.82-.4,1.51-1.06,2.32-1.48,3.73-1.93,7.34-5,11.25-5.51,10.39-1.26,20.92-1.52,31.4-1.88a49.24,49.24,0,0,1,10.59,1.07c2.36.43,5,1.07,4.64,4.64-.06.58,1.07,1.55,1.85,1.89,3.46,1.52,4.2,4.33,4.13,7.73a110.83,110.83,0,0,0,0,12.76c1.13,11.95,2.32,23.91,3.95,35.8,1.24,9.06,3.69,18,4.7,27a244.26,244.26,0,0,1,1.21,28c0,2.52-2.26,5-3.48,7.56ZM439.44,102.46H468.9C459.06,100.68,449.22,98.47,439.44,102.46Z"/>
    <path class="cls-1" d="M107.7,265.65c-13.21-1.44-23.75-5.33-31.3-15.12a7.7,7.7,0,0,1-1.48-3.59c-1.13-8.95,9.57-23.81,18.51-25.22,2.45-.39,5.17.9,7.77,1.37,2.78.5,5.55,1,8.34,1.38,9.23,1.06,18.82,12.69,17,21.7-.66,3.28-3.58,6.2-5.75,9.07a45.63,45.63,0,0,1-7.13,8C111.78,264.75,109,265.16,107.7,265.65Zm-9.08-14.07c5.43.07,6.06-.39,10.29-7.65.82-1.42,1-3.2,1.49-4.82-2-.17-4.1-.69-6.05-.4-1.71.25-3.92,1-4.8,2.26A26,26,0,0,0,96,249.24C95.8,249.92,98.22,251.25,98.62,251.58Z"/>
    <path class="cls-1" d="M327.31,240c2.11,9,8.59,14.69,17.66,14.34-1.52-.77-2.46-1.28-3.42-1.73-10.73-5-13.81-11.79-10.38-23,1.16-3.79,2.45-7.55,3.59-11.34.66-2.22,1.38-3.85,4-1.86.35.27,1.33-.09,1.92-.36,2.27-1.06,4.79-3.5,6.7-3.08,8.48,1.84,17,3.77,22.28,12.08,4.78,7.52.58,13.2-2.6,19.46-4.27,8.42-12.41,11.28-20.31,13.61-6.57,1.93-11.76-2.85-16.74-6.84C326,248.1,326,244.24,327.31,240Zm17.47-5.1c-.06,4.77,4.28,9.95,6.44,8.29a26.27,26.27,0,0,0,8-9.62c.67-1.49-2.16-5.16-4.13-7.1-3.85-3.79-7.87-2.45-9.26,2.78C345.26,231.35,345,233.5,344.78,234.93Zm-5.18,13.68c-8.51-7.38-3.31-16.9-3.88-25.48C329.4,237.71,330,242.05,339.6,248.61Z"/>
    <path class="cls-1" d="M1231.3,220.76l6.72,5.44c2.4.8,4.8,1.59,7.19,2.41,5,1.73,10.07,3.49,16.12,5.58-8.83,4-16.19,4.77-23.65-.2-3-2-7.31-2.47-9.86-4.86-5.27-4.94-9.77-10.72-14.58-16.15,2.48-3.54-1.57-5-2.47-7Z"/>
</svg>