<svg id="Layer_1" data-name="Layer 1"
	xmlns="http://www.w3.org/2000/svg" viewBox="0 0 1655.59 515.92">
	<defs>
		<style>.cls-1,.cls-2{fill: #fff;}.cls-2{fill:#fff;}</style>
	</defs>
	<title>MainTitle</title>
	<path class="cls-1" d="M397.71,320.73,391.32,322l1.38,3.64C388,334,380,337.43,371.56,339.73c-3,.81-6.42.22-9.63,0-15.67-1.26-29.53-8.62-44.17-13.31-5.66-1.82-11.06-4.46-16.67-6.48-1.55-.56-4.47-.91-4.91-.2a9.76,9.76,0,0,0-1.41,6.26c2.61,15.32,5.3,30.64,8.36,45.88q5.22,26,11.16,51.78c1.48,6.5,3.42,12.72,2.3,19.65-.73,4.48,3.1,6.33,7.92,6.34,7.23,0,14.45,1,21.68,1.48q11.18.71,22.36,1.1c4.77.17,9.56.19,14.33.05,7.64-.22,15.27-.91,22.9-.83,3.7,0,8,.49,10.91,2.43s4.64,5.88,6.53,9.14a9.47,9.47,0,0,1,.94,8.73c-.52,1.41,3.16,4.37,5,6.77l-3.05,1.88,8.68,7.64c-9.16.45-15.38,3.33-21.74,7.78-4.55,3.19-11.71,2.72-17.74,3.74-8.28,1.42-16.77,2-24.82,4.26-5.93,1.63-11.06,6.12-17,7.81-7.49,2.15-15,6.26-23.23,3.28a12.71,12.71,0,0,1-6.24-4.6c-3.14-5.06-7.83-5.3-12.47-4.32-18.69,3.95-37.45,3.6-56.29,1.82-3.47-.32-7,.15-10.46-.34-5.86-.82-11.65-2.18-17.5-3.16-2.19-.36-4.48-.07-6.68-.41-7.49-1.14-14.93-2.59-22.43-3.58-3.52-.47-7.15-.11-10.73-.2-5.05-.11-10.1-.53-15.14-.36-4.8.16-10.38-1.34-13,5.14-.48,1.19-2.71,2.22-4.22,2.35-10.2.92-20.42,1.79-30.66,2.14a7.55,7.55,0,0,1-5.71-3.63c-2.75-5.94-4.8-12.2-7-18.37-1.57-4.38-2.65-9-4.54-13.19-1.26-2.79-3.59-5.1-5.39-7.66a6.28,6.28,0,0,1-1.1-2.21c-1.17-5.3,10.66-19.81,16.12-19.66,7.15.19,14.34.21,21.42,1,2.84.34,5.46,3.82,8.17,3.8,9-.07,18.31,1.11,27-3.07,1.73-.84,4-.36,6-.86,9.08-2.32,18.42-4.05,27.11-7.41,6.75-2.62,13.64-5.61,18.54-11.89,3.54-4.53,9-7.57,12.52-12.1a105.44,105.44,0,0,0,10.48-17.35,59.8,59.8,0,0,0,5-13.85,81.17,81.17,0,0,0,2-16.57c.14-13.56.39-27.16-.65-40.65a71.77,71.77,0,0,0-6-22.73c-1.3-3-6.57-4.57-10.32-6.1-7.49-3.05-15.68-4.74-22.67-8.63-8.89-4.94-17.47-4-24.95.69-17.21,10.73-36.63,15.46-55.2,22.55C120,317.36,105,324.18,89.85,330.59c-3.32,1.41-6.17,4.73-10.43,2.28-.5-.29-1.73.68-2.62,1.08l-6.5,3c-.38,4.27-5,5.66-8.77,7.77-3.33,1.86-6.82,3.45-10.31,5a14.07,14.07,0,0,1-4.17,1c-2.2.25-4.56-.16-6.62.47-7.17,2.21-14.2-1.31-17.15-8.38a166.46,166.46,0,0,0-7.69-15.49c-.78-1.43-2.48-2.34-3.82-3.55.44-.47,1.08-1.18,2.18-2.38-8.28-2.24-9.61-9.61-11.29-15.86-1.88-7-3.56-14.88-2.12-21.7,1.78-8.43,6.36-16.45,10.68-24.12,4-7.12,9.08-13.68,14-20.24,2.75-3.65,6.37-6.64,9.24-10.21,2.1-2.63,3.26-6,5.45-8.57,7-8.15,17-9,26.78-10.21,6.38-.79,12.79-1.4,19.18-2.09a2.5,2.5,0,0,0,1-.15c11.6-7.48,26.21-7.52,37.69-15.88,5.65-4.1,13.48-5.08,20.05-8.07s12.55-6.67,18.86-9.94c1.09-.57,2.5-.48,3.67-.92,2.83-1.08,5.82-1.95,8.37-3.51,10.2-6.21,20.3-12.6,30.35-19,7.09-4.54,14-9.3,21.06-13.92,3.17-2.09,6.19-4.66,9.67-6,11.24-4.33,21.29-10.61,31.24-17.28,5.71-3.82,12.24-6.43,18.48-9.62-1.07-3.66-2.64-7.58-3.27-11.65a29.81,29.81,0,0,1,.29-10.23c2.49-12.43,16.17-20.33,27.55-13.61a36.2,36.2,0,0,1,13.51,13.8A3.81,3.81,0,0,0,327,84.2a3.31,3.31,0,0,0,2.49-1.81c2.35-6.45,5.51-12,12.83-13.85a3.21,3.21,0,0,0,1.26-.78c6.36-5.92,13.65-4.68,18.73,2.36,2.12,2.93,5.64,4.8,6.24,8.88.26,1.83.87,3.62,1.26,5.43.14.62-.14,1.49.2,1.87,4.57,5.17.86,10.72.58,16-.08,1.4-2.12,2.7-3,3.75,1.18,7-3.06,11.61-6.69,16.46-1.17,1.58-1.85,3.62-3.24,4.91s-3.68,1.87-5.25,3.14c-1.18.94-2.88,2.76-2.62,3.74,2.19,8.34-7.74,18.33-14.72,19.6-2.95.54-5.67,2.34-8.45,3.67-1.18.56-2.23,1.42-3.37,2.09-6.88,4.09-13.92,8-20.6,12.34-2.7,1.76-4.39,5-7,7a42.64,42.64,0,0,1-10.23,6.07c-4.89,1.86-8.06,5.46-11.7,8.84-5.55,5.16-12.29,9.14-17.36,14.68-7.14,7.8-13.35,16.47-19.68,25-2.51,3.38.22,6.83,2.63,8,6.68,3.36,13.18,8.31,21.23,7.1,5.41-.81,10.57-3.29,16-4.11a34,34,0,0,1,12.75.51c3,.72,5.79,3.08,8.32,5.14,2.11,1.73,5.19,4,5.28,6.15.32,8.36,6.67,9.35,12.32,11.6,6.85,2.73,13.66,5.56,20.38,8.57,5.4,2.41,10.54,5.43,16,7.72,6.11,2.56,12.76,4,18.59,7.06a83.14,83.14,0,0,1,17.5,12.05c2.32,2.12,3.64,7,3.07,10.2-.83,4.71.31,5.81,4.54,5.45a8.6,8.6,0,0,1,2.35.47C397.62,319.94,397.67,320.33,397.71,320.73Z"/>
	<path class="cls-1" d="M731.41,421.62,715,417.35c6,0,11,.15,15.94,0a104.19,104.19,0,0,0,14.9-1.18c4.92-.91,10-2.28,13.69-8.9-10.95-.83-20.77-1.88-30.63-2.26-17.62-.68-35.26-1.06-52.9-1.35-12.62-.2-25.26-.24-37.88.05-5.44.13-10.86,1.27-16.28,2-9.11,1.18-18.19,3.05-27.32,3.35-7.51.25-15.08-1.76-22.65-2-11.7-.41-23.54-1.3-34.64,4.14a7.18,7.18,0,0,1-5.73-.06c-3.51-1.88-5.31-.11-7.67,2-4.84,4.4-9.1,10.33-16.71,9.53-3.63-.38-7.07-2.49-10.71-3s-7.69-.12-10.9-.12c-2.06-2.87-3.93-5.72-6.06-8.37s-1.36-5.16.35-7.27c3.71-4.56,9.93-7.1,10.92-13.9.12-.83,1.7-1.44,2.66-2.19l5.51,7.14c4.14-2.69,8.32-5,12-8,1.07-.88.67-3.57.94-5.42l-5.34,2.07c-.76-3.25,1.5-6.61,4.19-6.5,5.9.25,4.94-4.18,4.88-6.64a122.07,122.07,0,0,0-2.25-20.71c-1.92-9.41-4.7-18.65-7-28a27,27,0,0,1-.47-5.41c-.39-9.93-.11-19.93-1.25-29.76-1.9-16.4-.29-32.53,1.74-48.74,1.77-14.15,3.05-28.36,4.48-42.55.76-7.6,2-15.22,1.85-22.81-.17-8.08-1.71-16.15-2.7-24.21-1.45-11.79-8.07-22.21-9.42-33.88-.84-7.24,0-14.81,1.11-22.07.39-2.51,3.56-5.22,6.12-6.64,9.94-5.49,20.16-10.44,30.22-15.7a58,58,0,0,0,8.89-5.4c11.9-9.28,24.73-11.78,38.42-4.84,6.77,3.43,13.07,7.86,19.33,12.2,2.08,1.44,3.46,4,5,6.09,1.74,2.41,2.88,5.45,5,7.35,5.42,4.75,7,11.37,7.83,17.65.68,5.1-1.55,10.59-2.47,15.9-.4,2.33-.75,4.66-1.26,7.88l8-4.48c-1,6.15-.38,11.13-5.15,14.66-1,.75-1.37,2.87-1.42,4.37-.17,5.27.12,10.56-.14,15.82-.34,6.75-1.3,13.47-1.55,20.22-.51,13.48-.68,27-1.07,40.45-.12,4.33,2.88,5.93,6.17,6.44,8.17,1.26,16.39,2.44,24.64,2.9,14.41.82,28.38-2,42.15-6.1a24.82,24.82,0,0,1,6.41-.55c7.61-.12,13.92-3.06,17.2-10,4.92-10.32,9.11-21,13.53-31.54,3.2-7.66,6.65-15.24,9.31-23.09,5.15-15.23,3.25-13.37-9-17.35a87.11,87.11,0,0,0-13-3.48c-5.56-.91-11.24-1-16.85-1.67-3.9-.43-7.76-1.45-11.66-1.56-2.5-.07-5,1-7.64,1.67-11.13-9.08-25-14.6-38.48-20.89-2.31-1.08-4.23-3-6.33-4.57,1.94-2.47,3.38-6,5.91-7.19A63.46,63.46,0,0,1,655,96.48c9.43-1.76,18.93-3.1,28.42-4.48a39.66,39.66,0,0,1,6.81-.11c2.81.08,5.63.47,8.44.41,9.24-.22,18.48-.48,27.71-1,5.1-.25,10.2-.85,15.26-1.56a4.6,4.6,0,0,0,3-2.29,148,148,0,0,0,6.16-14.94C752,69,752,65.08,753,61.44c1.51-5.58,3.44-11,5.08-16.58a39.17,39.17,0,0,0,.82-5l-3.81.51c2.49-13,4.93-25.7,7.44-38.8,6-4,12,.55,17.5,2.06,7.49,2.05,5.66,10.62,7.21,15.77a73.47,73.47,0,0,0-4,6.75c-1.37,3-.87,7-5.21,8.2-.47.13-.75,1.41-.91,2.21-1.83,9.34-3.77,18.67-5.32,28.06-.4,2.41.52,5,.71,7.55.24,3.13.78,6.32.44,9.4-.78,7.15.66,13.25,5.66,18.76,1.61,1.77,1.34,5.23,2,7.91,1.15,5-1.61,8.91-3.45,13.1-3.81,8.7-2.76,17.8-2.55,27,.65,27.88,1.74,55.74-.88,83.66-1.32,14,.08,28.24.49,42.37.53,18.27,1.69,36.52,1.83,54.79a262.89,262.89,0,0,1-2,35.14c-1.16,9.08,3.55,14.82,8.48,21,2.93,3.69,5.19,7.9,7.75,11.88,4.78,7.44.83,15,.13,22.5-.32,3.4-.05,4.52,3.49,4.51,6.93,0,12.38,3.15,16.85,8.38,1.58,1.85,3.84,3.11,5.54,4.89,2.24,2.36,2.46,4.48-1.53,5a79.44,79.44,0,0,1-10.4,1.11c-12.82.09-25.66-.53-38.45.06-14.23.66-28.39,3.16-42.61,3.4-15.06.26-30.41.3-45.14-2.33-13.41-2.39-26.12-1.08-39,1.06a123.59,123.59,0,0,1-35.77.31,49.27,49.27,0,0,0-7.46-.54c-4,.12-7.09.4-6.91,6.43.11,3.43-3.72,7.15-6.31,10.29-.42.5-3.7-1.37-6-2.28-1.34,2.24-2.54,4.42,2,5.1,7.31,1.09,14.6,3.17,21.91,3.25,15.93.16,31.87-.92,47.8-1,14.31-.08,28.62.79,42.92.7,13.47-.1,26.93-1.26,40.4-1.32,20.29-.1,40.59.4,60.89.52,5.31,0,10.66-.87,15.94-.53a170.89,170.89,0,0,1,18.61,2.68c2.53.45,3.29,5.7,1.21,7.53-.83.73-2.56,1.42-2.52,2,.38,6.1-3.72,6.58-8,6.51-10.87-.16-21.74-.48-32.6-.76-3-.07-6.07-.31-9.1-.26-6.95.12-13.9.34-20.85.56-10.1.31-20.2.69-30.29,1-2,0-4-.32-5.93-.22-9.75.46-19.49,1.35-29.24,1.41-7.6.06-15.21-1.11-22.83-1.31-11.95-.31-23.92-.5-35.87-.31q-21.42.34-42.83,1.47a55.3,55.3,0,0,1-21.8-3.09,31.52,31.52,0,0,1-16.66-13.4,25.43,25.43,0,0,1-3.28-9.27c-.53-3-3.6-3.94-4.06-7.39-1.11-8.26,2.48-13.56,11.19-14.71a118,118,0,0,0,13.58-3c1.41-.36,3.34-1,3.88-2.05,1.92-3.77,4.09-6.06,8.54-3.75a1.45,1.45,0,0,0,1.37-.34c2.83-6.38,8.25-2.76,12.43-3,13.82-.84,27.69-.77,41.48-1.86,7.49-.59,14.81-3.18,22.3-4.21,4-.55,8.26.39,12.4.5,9.94.28,19.89.46,29.83.68s19.88.43,29.82.61a11.54,11.54,0,0,0,2.37-.41C731.55,422.14,731.48,421.88,731.41,421.62ZM623,312.37a3.58,3.58,0,0,1,.19,1.88c-3,8.46-.08,18-4.88,26.17a3.92,3.92,0,0,0-.13,2c.32,6.78.34,13.6,1.19,20.31.26,2.06,2.46,5,4.36,5.54A86.77,86.77,0,0,0,641.81,372c14.45,1.12,28.84.59,42.73-4.4q7.49-2.69,15.18-4.83c7.5-2.09,15.17-3.61,22.57-6,6.5-2.08,12.55-5.6,13.34-13.24,1.14-11.08,2.24-22.24,2.07-33.35-.2-12.84-1.6-25.68-2.88-38.49-.67-6.68-4-9-10.72-8.85-.81,0-2,.14-2.39-.32-5-5.63-12.22-3.16-18.24-5-2.82-.88-6-1.85-8.77-1.48-13.54,1.81-26.91,2.5-40.52-.21-9.7-1.93-19.75-2.09-29.64-3.05-3.95-.39-4.4.66-3.51,4.46,1.62,6.93,5.06,13.81,1.55,21.19-.27.55.48,1.67.89,2.45,2.84,5.28.42,14-3.44,18.38-2.07,2.33-2.1,6.71-2.38,10.23C617.59,310.14,620.57,311.09,623,312.37Zm-62-175c3.71-2.07,4.93-.49,4.79,2.71a37.4,37.4,0,0,1-.88,5.41c-2.88,14.9-7,29.41-7.44,44.94-.6,20-4.21,39.91-6.38,59.87-1.23,11.27-2.23,22.57-3.25,33.86-1,10.68-2.53,21.37-2.4,32,.07,6.48-.73,13.77,7.65,18.18,6.49,3.42,11.48,2.61,16.63-.78a16.87,16.87,0,0,0,8-14.56c0-3.07-.08-6.15,0-9.22.29-19.75.82-39.51.81-59.26,0-7.44-1.82-14.88-1.73-22.3.12-9.17,1.4-18.33,2.11-27.49.76-9.74,1.38-19.49,2.18-29.22,1.51-18.2,3.35-36.37,4.54-54.59.35-5.38-.82-10.91-1.78-16.28-.23-1.24-2.72-3.17-3.8-3-5.33,1.05-10.56,2.65-15.78,4.18s-6,3.22-4.67,8.43C561.78,119.1,563.93,127.91,561,137.36ZM756,422c0,.25.07.5.11.75,1.07.12,2.15.31,3.22.34,1.28,0,2.56-.16,3.83-.07,3.78.28,4.1-.27,2.28-4.64Z"/>
	<path class="cls-1" d="M1446.91,251.69c-.43,1.82-.47,3.86-1.35,5.42-5.78,10.26-11.06,20.91-17.91,30.42-3.93,5.44-10.25,9.39-16,13.18-3.66,2.4-5.77,5.26-5.42,9.19.65,7.3-3.65,10.93-9.35,13-14.9,5.31-30.2,6.51-46.11,5.69-6.7-.34-15.34.06-20.86,7.09-1.66,2.13-5.1,2.8-7.57,4.37-10,6.36-25.4,4.94-33.32-3.72-3.17-3.46-5.23-8-7.73-12-4.51-7.31-11.54-11.69-18.56-16.07-.6-.37-1.86.24-2.8.48-13.75,3.47-27.52,5.9-41.8,3-8-1.64-15.81.56-23.22,3.53-2.28.92-4.28,3.11-5.86,5.14-4.54,5.87-11,6.27-16.46,1.22-7.39-6.82-11.61-15.31-15.17-24.57-1.52-4-5.81-7.08-9.28-10.07-3.11-2.68-3.72-5.45-2.8-9.27,1.72-7.16,3.72-14.35,4.38-21.63.73-8.17.23-16.47,0-24.7-.2-7.45-.93-14.88-1.1-22.33a85,85,0,0,1,.9-11c.9-8.2,1.65-16.43,2.86-24.59,1.56-10.51,3.33-21,5.38-31.43,1.39-7.1-.17-10.66-6.08-14.85-5.09-3.6-11.86-5-14.4-12.16-2.88-8.1-1.65-14.36,5-19.71,2.12-1.7,3.92-3.8,5.9-5.68,6.31-6,14.37-2.48,21.52-3.9a30.94,30.94,0,0,1,5.61-.47c6.89-.1,13.81.21,20.68-.25,9.7-.64,19.35,2.08,29.19-1.18,7-2.31,14.34.55,21.24,2.83,4.36,1.44,5.72.41,5.22-4.32-.44-4.25-1-9,.54-12.81,2.07-5.14,5.19-10.57,9.4-13.95,5.68-4.55,12.32-8.15,20.12-9.13,3.75-.48,7.42-2.85,10.77-4.93,5.49-3.4,10.42-2.62,16.2-.29,8.42,3.4,17.36,5.51,26,8.28,9.51,3,18.19,7.24,22.87,16.91a15.49,15.49,0,0,1-13.76,22.43c-9.48.12-18.11,2-24.82,9.86-3.44,4-5.17,8.27-4.83,13.1,1.19,16.72,3.07,33.38,4.15,50.1,1.19,18.4,1.64,36.85,2.7,55.26.68,11.73.77,23.68,3.25,35.07,1.59,7.34,3.64,14.78,5.85,22.05.61,2,4.32,5,5.76,4.57,7.07-2.05,13.26,1.5,19.84,2.11,6.14.56,12.27,1.36,18.4,2.06,1.78.2,3.73,0,5.31.66,17.18,7.24,32.06,1.41,46.08-8.26,8.79-6.07,15-14.49,19.78-24Zm-173.24,5c.25-5.36.41-9.94.69-14.51.93-15.15,2-30.29,2.82-45.45.24-4.26-.15-8.54,0-12.81,0-2.19,1-4.41.78-6.56-.86-10.54-1.89-21.06-3-31.57a60.47,60.47,0,0,0-2.05-11.13c-.34-1.11-2.94-2.57-4-2.25-10,2.92-20,6.11-29.87,9.39-8,2.67-15.62,6.6-24.73,4.2-2.14-.56-7.24,2.36-7.64,4.36a177.24,177.24,0,0,0-3,26.23c-.26,5,2.38,10.57,1.09,15.13-2.09,7.31,1,14.62-2.07,22.08-2,4.83.35,11.41.66,17.2.4,7.55.62,15.11,1.11,22.65.31,4.78,1.6,8.64,7.84,6,.75-.31,2,.15,2.85.53,11,4.87,20.64,2,29.72-4.82,8.35-6.24,15.8-6.25,24.37-.28C1270.19,255.83,1271.68,256,1273.67,256.71Z"/>
	<path class="cls-1" d="M1641.53,257.05c-4.26-.25-8-.45-11.72-.71-.77,0-2.13-.56-2.21-.39-2.26,4.72-5.67,1.3-8.6,1.35-8.38.15-16.76.43-25.14.75-2.62.1-5.24.46-7.86.76-4.86.55-8.14,3.15-8.87,8-.93,6.21-1.61,12.49-2,18.76-.75,12.44-1.36,24.89-1.74,37.34-.13,4.11,1,8.27.82,12.37-.12,2.26-1.27,5.27-3,6.48-5.57,3.93-11.62,7.19-17.62,10.8l-5.36-6.14c-5.56,1.66-6.34.88-8.69-4.62-1.47-3.45-3.56-7.15-6.44-9.33a12.18,12.18,0,0,1-4.88-9.2c-.77-14.75-1-29.52-1.09-44.29-.07-9.61.39-19.23.6-28.84a10.81,10.81,0,0,1,0-3c4-11.89,3.42-24.44,4.82-36.66,1.64-14.33,1.47-28.87,2.17-43.31.22-4.46.76-8.9,1.1-13.36.89-11.26-3.66-21-8.4-30.76-2.17-4.51-2.72-9.78-4.53-14.5-3.26-8.47-1.94-17.73-6.07-26.35-2.84-5.93-1.09-13.89,2.39-20.4s5.43-13.81,12-17.94c4-2.48,8.36-4.34,12.5-6.58,2.46-1.33,4.83-2.84,7.23-4.3.27-.16.43-.5.66-.74,4.81-4.81,21.68-5.92,27.27-2.26a20.28,20.28,0,0,0,9,3.28c6.91.57,10.71,2.91,12.61,9.56,1.23,4.32,2,8.68,6,11.66,1,.74,1,2.75,1.92,5.4,1-3.25,1.79-5.56,2.69-8.38,1.65,7.2-.89,12.13-8.44,16.94l-4.59-4.82c-.74,1.75-1.25,3.21-1.95,4.56-1.11,2.15-2.47,3.48-5.14,1.83-.62-.37-2.18.31-3,.9-4,2.76-4.77,8-2.5,12.8.46,1-.42,3.36-1.43,4.14-7.48,5.83-4.58,13.42-3.92,20.72.78,8.66,1.83,17.34,1.84,26,0,18.23-.49,36.47-.91,54.71-.12,5.64-.78,11.27-.9,16.91-.1,5.08,2.57,7.15,7.55,7.81,17.71,2.34,35.49,4.38,53,7.85,5.74,1.13,11.61,5.33,12.52,12.84.15,1.24,1.33,2.32,1.59,3.57.4,2,1.24,4.52.4,5.95s-3.52,2.22-5.37,2.18C1641.39,246.29,1640.24,247.42,1641.53,257.05Z"/>
	<path class="cls-1" d="M1076.41,420.64c-.64,4.3-1.15,7.69-1.69,11.32l-5.51.58c-1.06-3.76-2.12-7.49-3.18-11.23l-1.88.58a13.63,13.63,0,0,1,.83,3.52c-.07,3.23-1,5.73-4.87,6.5-2.19.43-4.11,2.23-6.11,3.38-5.5-6.54-5.94-15.2-6.12-23.71-.29-14,.08-28.09-.06-42.13,0-5.8-.59-11.6-1.21-17.38-.09-.85-1.89-2.21-2.83-2.14a82.64,82.64,0,0,0-8.74,1.48c-.47.08-1.15.13-1.44-.14-5.28-4.78-11.64-1.42-17.44-2.17-1.95-.25-4.16,1.5-5.56,2.06-2.94-.32-5.45-.61-8-.86-10.27-1-20.53-2.12-30.81-3-3.63-.32-7.79.87-10.81-.54-3.28-1.54-6.1-1-9.19-1-15.66.31-31.33.4-47,1-4,.16-7.89,2-11.85,3.05a39.29,39.29,0,0,1-4.32.71c-7.87,1.07-15.8,1.78-23.57,3.34-3.64.72-6.83,4-10.44,4.49-5.66.75-11.5.09-17.27.05q-9.15,0-18.31,0c-2.32,0-4.65.15-7,.17-4.42,0-8.88.37-13.25-.08a29.63,29.63,0,0,1-10.42-2.72c-5.67-2.9-6.94-7.23-4.79-13.36.93-2.66,1.94-5.3,3-7.93,1.76-4.6,6.88-5.73,10.74-2.68a7.4,7.4,0,0,0,4.86,1.49c9.56-1.05,19.12-2.17,28.61-3.66,25.07-4,50-8.6,75.17-11.95,9.24-1.23,18.87.49,28.32.7s18.63.14,27.93.36c8.79.22,17.6.33,26.33,1.15,4.2.4,8.19,2.58,12.37,3.52,11.5,2.57,22.82.11,34.14-1.59a39.86,39.86,0,0,1,4.44-.63c8.69-.32,10.76-2.28,11.18-11,.86-17.78,2.19-35.55-.57-53.33-.57-3.67.71-7.58.74-11.39.1-11.69.39-23.41-.21-35.07-.24-4.77-2.83-9.38-3.91-14.15-2.13-9.45,5-19.76,14.38-21.92,4.7-1.08,9.06-1.85,11.47,3.36,1.68,3.62,4.11,6.68,3.73,11.59-.41,5.41,1.73,11.12,3.26,16.56,3.8,13.51,4.87,27.31,5.68,41.25.76,12.91,2.87,25.73,4.1,38.61.37,3.88.68,8.15-.53,11.72-3.38,9.95-.26,19.83-.53,29.71-.23,8.6,1,17.22,1,25.83-.15,14.24-.41,28.51-1.49,42.7-.62,8.11-2.74,16.15-4.67,24.1C1082.37,422.73,1079.88,423.87,1076.41,420.64Z"/>
	<path class="cls-1" d="M1355,390.11c-.32-3.53-.7-7.66-1.09-11.79-.68-7.26,3.33-12.39,10.48-13.93,5.91-1.27,11-3.55,14.25-9.47,1.48-2.7,5.62-3.86,8.37-5.94a46.6,46.6,0,0,0,7.6-6.59c7-8.2,8.37-10.85,19.49-8.84,5.24.94,11.26-.5,15.88,1.53,10.26,4.5,20.07,10.23,26.89,19.7a44.5,44.5,0,0,1,4.44,6.59c1.64,3.47,2.83,7.15,4.12,10.77,2.33,6.55,4.5,13.15,6.89,19.67,2.82,7.67,3.59,15-1.82,22.07-1.57,2-2.39,4.71-3.3,7.19-1.86,5.06-4.57,9.14-10.25,10.46a4,4,0,0,0-2.35,1.53c-2.58,4.32-5.94,6.57-11.12,8-4.27,1.22-7.42,6.21-11.18,9.39-4.2,3.57-8.28,7.37-12.87,10.37-6.05,3.95-10.49-1.63-14.63-4.24a107.31,107.31,0,0,1-18.27-15.22c-3.28-3.28-5.42-7.79-7.74-11.93-3.14-5.6-8.28-9.1-12.78-13.35C1358.8,409.33,1353.63,401.36,1355,390.11Zm81.12,4.49c0-6.38-1.23-8.15-7.56-8.72a55.85,55.85,0,0,0-33.26,7c-4.88,2.76-6.1,5-2.7,9.4,4.87,6.26,10.25,12.15,15.72,17.91,1.27,1.34,4.06,2.5,5.69,2C1424.52,419.26,1435.79,407.65,1436.11,394.6Z"/>
	<path class="cls-1" d="M1018.06,252.8a12.34,12.34,0,0,0,0,1.49c.63,4.81.32,8.69-6,9.35-3.45.36-6.65,2.4-7,6.45-.48,5.27-5.46,6.52-8.13,9.8-2.15,2.65-3.83,5.69-6,8.3a10.53,10.53,0,0,1-4.63,3.35,20.37,20.37,0,0,0-12.33,9.93c-.62,1.07-3.08,1.73-4.55,1.53A128.27,128.27,0,0,1,952,299.82c-2.22-.61-4.13-3-5.78-4.93-9-10.43-16.86-22-27-31.13-7.66-6.95-11.24-14.55-12.77-24.09-.91-5.74,3.83-16.13,7.38-20.73,2.92-3.79,9.11-5.1,9-11.58,0-1.74,2.74-3.53,4.22-5.31,2.62-3.16,5-6.62,8-9.38,1.61-1.49,4.64-3,6.49-2.46,16.9,4.62,33.5,10,49.18,18.11,8,4.14,15.88,8.17,20.57,16.31a15.59,15.59,0,0,1,2,5.39c.64,4.42,0,8.78,3.9,12.68,1.9,1.92,1,6.61,1.4,10.05Zm-51.53,11.87c2.33-.27,3.84-.06,4.92-.64,5.76-3.13,11.2-6.72,15.66-11.64,1.6-1.76,4-3,5.08-5,3-5.85.47-14.12-6.31-17.85-7.32-4-15.07-7.69-23.08-9.84-4.71-1.26-10.31.52-15.44,1.37-1.36.23-2.62,2-3.64,3.24-4.06,5-2.39,10.28.54,14.68,5.4,8.1,11.44,15.79,17.5,23.42C962.89,263.85,965.4,264.17,966.53,264.67Z"/>
	<path class="cls-2" d="M756,422l9.44-3.62c1.82,4.37,1.5,4.92-2.28,4.64-1.27-.09-2.55.11-3.83.07-1.07,0-2.15-.22-3.22-.34C756,422.54,756,422.29,756,422Z"/>
</svg>