<?xml version="1.0" encoding="utf-8"?>
<!-- Generator: Adobe Illustrator 24.1.0, SVG Export Plug-In . SVG Version: 6.00 Build 0)  -->
<svg version="1.1" id="Layer_1" xmlns="http://www.w3.org/2000/svg" xmlns:xlink="http://www.w3.org/1999/xlink" x="0px" y="0px"
	 viewBox="0 0 910 550" style="enable-background:new 0 0 910 550;" xml:space="preserve">
<style type="text/css">
	.st0{fill:none;stroke:#FFFFFF;stroke-width:0.25;stroke-miterlimit:10;}
</style>
<g>
	<line class="st0" x1="692.5" y1="0" x2="142.5" y2="550"/>
	<line class="st0" x1="687.5" y1="0" x2="137.5" y2="550"/>
	<line class="st0" x1="682.5" y1="0" x2="132.5" y2="550"/>
	<line class="st0" x1="677.5" y1="0" x2="127.5" y2="550"/>
	<line class="st0" x1="672.5" y1="0" x2="122.5" y2="550"/>
	<line class="st0" x1="667.5" y1="0" x2="117.5" y2="550"/>
	<line class="st0" x1="662.5" y1="0" x2="112.5" y2="550"/>
	<line class="st0" x1="657.5" y1="0" x2="107.5" y2="550"/>
	<line class="st0" x1="652.5" y1="0" x2="102.5" y2="550"/>
	<line class="st0" x1="647.5" y1="0" x2="97.5" y2="550"/>
	<line class="st0" x1="642.5" y1="0" x2="92.5" y2="550"/>
	<line class="st0" x1="637.5" y1="0" x2="87.5" y2="550"/>
	<line class="st0" x1="632.5" y1="0" x2="82.5" y2="550"/>
	<line class="st0" x1="627.5" y1="0" x2="77.5" y2="550"/>
	<line class="st0" x1="622.5" y1="0" x2="72.5" y2="550"/>
	<line class="st0" x1="617.5" y1="0" x2="67.5" y2="550"/>
	<line class="st0" x1="612.5" y1="0" x2="62.5" y2="550"/>
	<line class="st0" x1="607.5" y1="0" x2="57.5" y2="550"/>
	<line class="st0" x1="602.5" y1="0" x2="52.5" y2="550"/>
	<line class="st0" x1="597.5" y1="0" x2="47.5" y2="550"/>
	<line class="st0" x1="592.5" y1="0" x2="42.5" y2="550"/>
	<line class="st0" x1="587.5" y1="0" x2="37.5" y2="550"/>
	<line class="st0" x1="582.5" y1="0" x2="32.5" y2="550"/>
	<line class="st0" x1="577.5" y1="0" x2="27.5" y2="550"/>
	<line class="st0" x1="572.5" y1="0" x2="22.5" y2="550"/>
	<line class="st0" x1="567.5" y1="0" x2="17.5" y2="550"/>
	<line class="st0" x1="562.5" y1="0" x2="12.5" y2="550"/>
	<line class="st0" x1="557.5" y1="0" x2="7.5" y2="550"/>
	<line class="st0" x1="552.5" y1="0" x2="2.5" y2="550"/>
	<line class="st0" x1="547.5" y1="0" x2="-2.5" y2="550"/>
	<line class="st0" x1="542.5" y1="0" x2="-7.5" y2="550"/>
	<line class="st0" x1="537.5" y1="0" x2="-12.5" y2="550"/>
	<line class="st0" x1="532.5" y1="0" x2="-17.5" y2="550"/>
	<line class="st0" x1="527.5" y1="0" x2="-22.5" y2="550"/>
	<line class="st0" x1="522.5" y1="0" x2="-27.5" y2="550"/>
	<line class="st0" x1="517.5" y1="0" x2="-32.5" y2="550"/>
	<line class="st0" x1="512.5" y1="0" x2="-37.5" y2="550"/>
	<line class="st0" x1="507.5" y1="0" x2="-42.5" y2="550"/>
	<line class="st0" x1="502.5" y1="0" x2="-47.5" y2="550"/>
	<line class="st0" x1="497.5" y1="0" x2="-52.5" y2="550"/>
	<line class="st0" x1="492.5" y1="0" x2="-57.5" y2="550"/>
	<line class="st0" x1="487.5" y1="0" x2="-62.5" y2="550"/>
	<line class="st0" x1="482.5" y1="0" x2="-67.5" y2="550"/>
	<line class="st0" x1="477.5" y1="0" x2="-72.5" y2="550"/>
	<line class="st0" x1="472.5" y1="0" x2="-77.5" y2="550"/>
	<line class="st0" x1="467.5" y1="0" x2="-82.5" y2="550"/>
	<line class="st0" x1="462.5" y1="0" x2="-87.5" y2="550"/>
	<line class="st0" x1="457.5" y1="0" x2="-92.5" y2="550"/>
	<line class="st0" x1="452.5" y1="0" x2="-97.5" y2="550"/>
	<line class="st0" x1="447.5" y1="0" x2="-102.5" y2="550"/>
	<line class="st0" x1="442.5" y1="0" x2="-107.5" y2="550"/>
	<line class="st0" x1="437.5" y1="0" x2="-112.5" y2="550"/>
	<line class="st0" x1="432.5" y1="0" x2="-117.5" y2="550"/>
	<line class="st0" x1="427.5" y1="0" x2="-122.5" y2="550"/>
	<line class="st0" x1="422.5" y1="0" x2="-127.5" y2="550"/>
	<line class="st0" x1="417.5" y1="0" x2="-132.5" y2="550"/>
	<line class="st0" x1="412.5" y1="0" x2="-137.5" y2="550"/>
	<line class="st0" x1="407.5" y1="0" x2="-142.5" y2="550"/>
	<line class="st0" x1="402.5" y1="0" x2="-147.5" y2="550"/>
	<line class="st0" x1="397.5" y1="0" x2="-152.5" y2="550"/>
	<line class="st0" x1="392.5" y1="0" x2="-157.5" y2="550"/>
	<line class="st0" x1="387.5" y1="0" x2="-162.5" y2="550"/>
	<line class="st0" x1="382.5" y1="0" x2="-167.5" y2="550"/>
	<line class="st0" x1="377.5" y1="0" x2="-172.5" y2="550"/>
	<line class="st0" x1="372.5" y1="0" x2="-177.5" y2="550"/>
	<line class="st0" x1="367.5" y1="0" x2="-182.5" y2="550"/>
	<line class="st0" x1="362.5" y1="0" x2="-187.5" y2="550"/>
	<line class="st0" x1="357.5" y1="0" x2="-192.5" y2="550"/>
	<line class="st0" x1="352.5" y1="0" x2="-197.5" y2="550"/>
	<line class="st0" x1="347.5" y1="0" x2="-202.5" y2="550"/>
	<line class="st0" x1="342.5" y1="0" x2="-207.5" y2="550"/>
	<line class="st0" x1="337.5" y1="0" x2="-212.5" y2="550"/>
	<line class="st0" x1="332.5" y1="0" x2="-217.5" y2="550"/>
	<line class="st0" x1="327.5" y1="0" x2="-222.5" y2="550"/>
	<line class="st0" x1="322.5" y1="0" x2="-227.5" y2="550"/>
	<line class="st0" x1="317.5" y1="0" x2="-232.5" y2="550"/>
	<line class="st0" x1="312.5" y1="0" x2="-237.5" y2="550"/>
	<line class="st0" x1="307.5" y1="0" x2="-242.5" y2="550"/>
	<line class="st0" x1="302.5" y1="0" x2="-247.5" y2="550"/>
	<line class="st0" x1="297.5" y1="0" x2="-252.5" y2="550"/>
	<line class="st0" x1="292.5" y1="0" x2="-257.5" y2="550"/>
	<line class="st0" x1="287.5" y1="0" x2="-262.5" y2="550"/>
	<line class="st0" x1="282.5" y1="0" x2="-267.5" y2="550"/>
	<line class="st0" x1="277.5" y1="0" x2="-272.5" y2="550"/>
	<line class="st0" x1="272.5" y1="0" x2="-277.5" y2="550"/>
	<line class="st0" x1="267.5" y1="0" x2="-282.5" y2="550"/>
	<line class="st0" x1="262.5" y1="0" x2="-287.5" y2="550"/>
	<line class="st0" x1="257.5" y1="0" x2="-292.5" y2="550"/>
	<line class="st0" x1="252.5" y1="0" x2="-297.5" y2="550"/>
	<line class="st0" x1="247.5" y1="0" x2="-302.5" y2="550"/>
	<line class="st0" x1="242.5" y1="0" x2="-307.5" y2="550"/>
	<line class="st0" x1="237.5" y1="0" x2="-312.5" y2="550"/>
	<line class="st0" x1="232.5" y1="0" x2="-317.5" y2="550"/>
	<line class="st0" x1="227.5" y1="0" x2="-322.5" y2="550"/>
	<line class="st0" x1="222.5" y1="0" x2="-327.5" y2="550"/>
	<line class="st0" x1="217.5" y1="0" x2="-332.5" y2="550"/>
	<line class="st0" x1="212.5" y1="0" x2="-337.5" y2="550"/>
	<line class="st0" x1="207.5" y1="0" x2="-342.5" y2="550"/>
	<line class="st0" x1="202.5" y1="0" x2="-347.5" y2="550"/>
	<line class="st0" x1="197.5" y1="0" x2="-352.5" y2="550"/>
	<line class="st0" x1="192.5" y1="0" x2="-357.5" y2="550"/>
	<line class="st0" x1="187.5" y1="0" x2="-362.5" y2="550"/>
	<line class="st0" x1="182.5" y1="0" x2="-367.5" y2="550"/>
	<line class="st0" x1="177.5" y1="0" x2="-372.5" y2="550"/>
	<line class="st0" x1="172.5" y1="0" x2="-377.5" y2="550"/>
	<line class="st0" x1="167.5" y1="0" x2="-382.5" y2="550"/>
	<line class="st0" x1="162.5" y1="0" x2="-387.5" y2="550"/>
	<line class="st0" x1="157.5" y1="0" x2="-392.5" y2="550"/>
	<line class="st0" x1="152.5" y1="0" x2="-397.5" y2="550"/>
	<line class="st0" x1="147.5" y1="0" x2="-402.5" y2="550"/>
	<line class="st0" x1="142.5" y1="0" x2="-407.5" y2="550"/>
	<line class="st0" x1="137.5" y1="0" x2="-412.5" y2="550"/>
	<line class="st0" x1="132.5" y1="0" x2="-417.5" y2="550"/>
	<line class="st0" x1="127.5" y1="0" x2="-422.5" y2="550"/>
	<line class="st0" x1="122.5" y1="0" x2="-427.5" y2="550"/>
	<line class="st0" x1="117.5" y1="0" x2="-432.5" y2="550"/>
	<line class="st0" x1="112.5" y1="0" x2="-437.5" y2="550"/>
	<line class="st0" x1="107.5" y1="0" x2="-442.5" y2="550"/>
	<line class="st0" x1="102.5" y1="0" x2="-447.5" y2="550"/>
	<line class="st0" x1="97.5" y1="0" x2="-452.5" y2="550"/>
	<line class="st0" x1="92.5" y1="0" x2="-457.5" y2="550"/>
	<line class="st0" x1="87.5" y1="0" x2="-462.5" y2="550"/>
	<line class="st0" x1="82.5" y1="0" x2="-467.5" y2="550"/>
	<line class="st0" x1="77.5" y1="0" x2="-472.5" y2="550"/>
	<line class="st0" x1="72.5" y1="0" x2="-477.5" y2="550"/>
	<line class="st0" x1="67.5" y1="0" x2="-482.5" y2="550"/>
	<line class="st0" x1="62.5" y1="0" x2="-487.5" y2="550"/>
	<line class="st0" x1="57.5" y1="0" x2="-492.5" y2="550"/>
	<line class="st0" x1="52.5" y1="0" x2="-497.5" y2="550"/>
	<line class="st0" x1="47.5" y1="0" x2="-502.5" y2="550"/>
	<line class="st0" x1="42.5" y1="0" x2="-507.5" y2="550"/>
	<line class="st0" x1="37.5" y1="0" x2="-512.5" y2="550"/>
	<line class="st0" x1="32.5" y1="0" x2="-517.5" y2="550"/>
	<line class="st0" x1="27.5" y1="0" x2="-522.5" y2="550"/>
	<line class="st0" x1="22.5" y1="0" x2="-527.5" y2="550"/>
	<line class="st0" x1="17.5" y1="0" x2="-532.5" y2="550"/>
	<line class="st0" x1="12.5" y1="0" x2="-537.5" y2="550"/>
	<line class="st0" x1="7.5" y1="0" x2="-542.5" y2="550"/>
	<line class="st0" x1="2.5" y1="0" x2="-547.5" y2="550"/>
	<line class="st0" x1="-2.5" y1="0" x2="-552.5" y2="550"/>
	<line class="st0" x1="-7.5" y1="0" x2="-557.5" y2="550"/>
	<line class="st0" x1="-12.5" y1="0" x2="-562.5" y2="550"/>
	<line class="st0" x1="-17.5" y1="0" x2="-567.5" y2="550"/>
	<line class="st0" x1="-22.5" y1="0" x2="-572.5" y2="550"/>
	<line class="st0" x1="-27.5" y1="0" x2="-577.5" y2="550"/>
	<line class="st0" x1="697.5" y1="0" x2="147.5" y2="550"/>
	<line class="st0" x1="977.5" y1="0" x2="427.5" y2="550"/>
	<line class="st0" x1="972.5" y1="0" x2="422.5" y2="550"/>
	<line class="st0" x1="967.5" y1="0" x2="417.5" y2="550"/>
	<line class="st0" x1="962.5" y1="0" x2="412.5" y2="550"/>
	<line class="st0" x1="957.5" y1="0" x2="407.5" y2="550"/>
	<line class="st0" x1="952.5" y1="0" x2="402.5" y2="550"/>
	<line class="st0" x1="947.5" y1="0" x2="397.5" y2="550"/>
	<line class="st0" x1="942.5" y1="0" x2="392.5" y2="550"/>
	<line class="st0" x1="937.5" y1="0" x2="387.5" y2="550"/>
	<line class="st0" x1="932.5" y1="0" x2="382.5" y2="550"/>
	<line class="st0" x1="927.5" y1="0" x2="377.5" y2="550"/>
	<line class="st0" x1="922.5" y1="0" x2="372.5" y2="550"/>
	<line class="st0" x1="917.5" y1="0" x2="367.5" y2="550"/>
	<line class="st0" x1="912.5" y1="0" x2="362.5" y2="550"/>
	<line class="st0" x1="907.5" y1="0" x2="357.5" y2="550"/>
	<line class="st0" x1="902.5" y1="0" x2="352.5" y2="550"/>
	<line class="st0" x1="897.5" y1="0" x2="347.5" y2="550"/>
	<line class="st0" x1="892.5" y1="0" x2="342.5" y2="550"/>
	<line class="st0" x1="887.5" y1="0" x2="337.5" y2="550"/>
	<line class="st0" x1="882.5" y1="0" x2="332.5" y2="550"/>
	<line class="st0" x1="877.5" y1="0" x2="327.5" y2="550"/>
	<line class="st0" x1="872.5" y1="0" x2="322.5" y2="550"/>
	<line class="st0" x1="867.5" y1="0" x2="317.5" y2="550"/>
	<line class="st0" x1="862.5" y1="0" x2="312.5" y2="550"/>
	<line class="st0" x1="857.5" y1="0" x2="307.5" y2="550"/>
	<line class="st0" x1="852.5" y1="0" x2="302.5" y2="550"/>
	<line class="st0" x1="847.5" y1="0" x2="297.5" y2="550"/>
	<line class="st0" x1="842.5" y1="0" x2="292.5" y2="550"/>
	<line class="st0" x1="837.5" y1="0" x2="287.5" y2="550"/>
	<line class="st0" x1="832.5" y1="0" x2="282.5" y2="550"/>
	<line class="st0" x1="827.5" y1="0" x2="277.5" y2="550"/>
	<line class="st0" x1="822.5" y1="0" x2="272.5" y2="550"/>
	<line class="st0" x1="817.5" y1="0" x2="267.5" y2="550"/>
	<line class="st0" x1="812.5" y1="0" x2="262.5" y2="550"/>
	<line class="st0" x1="807.5" y1="0" x2="257.5" y2="550"/>
	<line class="st0" x1="802.5" y1="0" x2="252.5" y2="550"/>
	<line class="st0" x1="797.5" y1="0" x2="247.5" y2="550"/>
	<line class="st0" x1="792.5" y1="0" x2="242.5" y2="550"/>
	<line class="st0" x1="787.5" y1="0" x2="237.5" y2="550"/>
	<line class="st0" x1="782.5" y1="0" x2="232.5" y2="550"/>
	<line class="st0" x1="777.5" y1="0" x2="227.5" y2="550"/>
	<line class="st0" x1="772.5" y1="0" x2="222.5" y2="550"/>
	<line class="st0" x1="767.5" y1="0" x2="217.5" y2="550"/>
	<line class="st0" x1="762.5" y1="0" x2="212.5" y2="550"/>
	<line class="st0" x1="757.5" y1="0" x2="207.5" y2="550"/>
	<line class="st0" x1="752.5" y1="0" x2="202.5" y2="550"/>
	<line class="st0" x1="747.5" y1="0" x2="197.5" y2="550"/>
	<line class="st0" x1="742.5" y1="0" x2="192.5" y2="550"/>
	<line class="st0" x1="737.5" y1="0" x2="187.5" y2="550"/>
	<line class="st0" x1="732.5" y1="0" x2="182.5" y2="550"/>
	<line class="st0" x1="727.5" y1="0" x2="177.5" y2="550"/>
	<line class="st0" x1="722.5" y1="0" x2="172.5" y2="550"/>
	<line class="st0" x1="717.5" y1="0" x2="167.5" y2="550"/>
	<line class="st0" x1="712.5" y1="0" x2="162.5" y2="550"/>
	<line class="st0" x1="707.5" y1="0" x2="157.5" y2="550"/>
	<line class="st0" x1="702.5" y1="0" x2="152.5" y2="550"/>
	<line class="st0" x1="982.5" y1="0" x2="432.5" y2="550"/>
	<line class="st0" x1="1192.5" y1="0" x2="642.5" y2="550"/>
	<line class="st0" x1="1187.5" y1="0" x2="637.5" y2="550"/>
	<line class="st0" x1="1182.5" y1="0" x2="632.5" y2="550"/>
	<line class="st0" x1="1177.5" y1="0" x2="627.5" y2="550"/>
	<line class="st0" x1="1172.5" y1="0" x2="622.5" y2="550"/>
	<line class="st0" x1="1167.5" y1="0" x2="617.5" y2="550"/>
	<line class="st0" x1="1162.5" y1="0" x2="612.5" y2="550"/>
	<line class="st0" x1="1157.5" y1="0" x2="607.5" y2="550"/>
	<line class="st0" x1="1152.5" y1="0" x2="602.5" y2="550"/>
	<line class="st0" x1="1147.5" y1="0" x2="597.5" y2="550"/>
	<line class="st0" x1="1142.5" y1="0" x2="592.5" y2="550"/>
	<line class="st0" x1="1137.5" y1="0" x2="587.5" y2="550"/>
	<line class="st0" x1="1132.5" y1="0" x2="582.5" y2="550"/>
	<line class="st0" x1="1127.5" y1="0" x2="577.5" y2="550"/>
	<line class="st0" x1="1122.5" y1="0" x2="572.5" y2="550"/>
	<line class="st0" x1="1117.5" y1="0" x2="567.5" y2="550"/>
	<line class="st0" x1="1112.5" y1="0" x2="562.5" y2="550"/>
	<line class="st0" x1="1107.5" y1="0" x2="557.5" y2="550"/>
	<line class="st0" x1="1102.5" y1="0" x2="552.5" y2="550"/>
	<line class="st0" x1="1097.5" y1="0" x2="547.5" y2="550"/>
	<line class="st0" x1="1092.5" y1="0" x2="542.5" y2="550"/>
	<line class="st0" x1="1087.5" y1="0" x2="537.5" y2="550"/>
	<line class="st0" x1="1082.5" y1="0" x2="532.5" y2="550"/>
	<line class="st0" x1="1077.5" y1="0" x2="527.5" y2="550"/>
	<line class="st0" x1="1072.5" y1="0" x2="522.5" y2="550"/>
	<line class="st0" x1="1067.5" y1="0" x2="517.5" y2="550"/>
	<line class="st0" x1="1062.5" y1="0" x2="512.5" y2="550"/>
	<line class="st0" x1="1057.5" y1="0" x2="507.5" y2="550"/>
	<line class="st0" x1="1052.5" y1="0" x2="502.5" y2="550"/>
	<line class="st0" x1="1047.5" y1="0" x2="497.5" y2="550"/>
	<line class="st0" x1="1042.5" y1="0" x2="492.5" y2="550"/>
	<line class="st0" x1="1037.5" y1="0" x2="487.5" y2="550"/>
	<line class="st0" x1="1032.5" y1="0" x2="482.5" y2="550"/>
	<line class="st0" x1="1027.5" y1="0" x2="477.5" y2="550"/>
	<line class="st0" x1="1022.5" y1="0" x2="472.5" y2="550"/>
	<line class="st0" x1="1017.5" y1="0" x2="467.5" y2="550"/>
	<line class="st0" x1="1012.5" y1="0" x2="462.5" y2="550"/>
	<line class="st0" x1="1007.5" y1="0" x2="457.5" y2="550"/>
	<line class="st0" x1="1002.5" y1="0" x2="452.5" y2="550"/>
	<line class="st0" x1="997.5" y1="0" x2="447.5" y2="550"/>
	<line class="st0" x1="992.5" y1="0" x2="442.5" y2="550"/>
	<line class="st0" x1="987.5" y1="0" x2="437.5" y2="550"/>
	<line class="st0" x1="1197.5" y1="0" x2="647.5" y2="550"/>
	<line class="st0" x1="1392.5" y1="0" x2="842.5" y2="550"/>
	<line class="st0" x1="1387.5" y1="0" x2="837.5" y2="550"/>
	<line class="st0" x1="1382.5" y1="0" x2="832.5" y2="550"/>
	<line class="st0" x1="1377.5" y1="0" x2="827.5" y2="550"/>
	<line class="st0" x1="1372.5" y1="0" x2="822.5" y2="550"/>
	<line class="st0" x1="1367.5" y1="0" x2="817.5" y2="550"/>
	<line class="st0" x1="1362.5" y1="0" x2="812.5" y2="550"/>
	<line class="st0" x1="1357.5" y1="0" x2="807.5" y2="550"/>
	<line class="st0" x1="1352.5" y1="0" x2="802.5" y2="550"/>
	<line class="st0" x1="1347.5" y1="0" x2="797.5" y2="550"/>
	<line class="st0" x1="1342.5" y1="0" x2="792.5" y2="550"/>
	<line class="st0" x1="1337.5" y1="0" x2="787.5" y2="550"/>
	<line class="st0" x1="1332.5" y1="0" x2="782.5" y2="550"/>
	<line class="st0" x1="1327.5" y1="0" x2="777.5" y2="550"/>
	<line class="st0" x1="1322.5" y1="0" x2="772.5" y2="550"/>
	<line class="st0" x1="1317.5" y1="0" x2="767.5" y2="550"/>
	<line class="st0" x1="1312.5" y1="0" x2="762.5" y2="550"/>
	<line class="st0" x1="1307.5" y1="0" x2="757.5" y2="550"/>
	<line class="st0" x1="1302.5" y1="0" x2="752.5" y2="550"/>
	<line class="st0" x1="1297.5" y1="0" x2="747.5" y2="550"/>
	<line class="st0" x1="1292.5" y1="0" x2="742.5" y2="550"/>
	<line class="st0" x1="1287.5" y1="0" x2="737.5" y2="550"/>
	<line class="st0" x1="1282.5" y1="0" x2="732.5" y2="550"/>
	<line class="st0" x1="1277.5" y1="0" x2="727.5" y2="550"/>
	<line class="st0" x1="1272.5" y1="0" x2="722.5" y2="550"/>
	<line class="st0" x1="1267.5" y1="0" x2="717.5" y2="550"/>
	<line class="st0" x1="1262.5" y1="0" x2="712.5" y2="550"/>
	<line class="st0" x1="1257.5" y1="0" x2="707.5" y2="550"/>
	<line class="st0" x1="1252.5" y1="0" x2="702.5" y2="550"/>
	<line class="st0" x1="1247.5" y1="0" x2="697.5" y2="550"/>
	<line class="st0" x1="1242.5" y1="0" x2="692.5" y2="550"/>
	<line class="st0" x1="1237.5" y1="0" x2="687.5" y2="550"/>
	<line class="st0" x1="1232.5" y1="0" x2="682.5" y2="550"/>
	<line class="st0" x1="1227.5" y1="0" x2="677.5" y2="550"/>
	<line class="st0" x1="1222.5" y1="0" x2="672.5" y2="550"/>
	<line class="st0" x1="1217.5" y1="0" x2="667.5" y2="550"/>
	<line class="st0" x1="1212.5" y1="0" x2="662.5" y2="550"/>
	<line class="st0" x1="1207.5" y1="0" x2="657.5" y2="550"/>
	<line class="st0" x1="1202.5" y1="0" x2="652.5" y2="550"/>
	<line class="st0" x1="1397.5" y1="0" x2="847.5" y2="550"/>
	<line class="st0" x1="1477.5" y1="0" x2="927.5" y2="550"/>
	<line class="st0" x1="1472.5" y1="0" x2="922.5" y2="550"/>
	<line class="st0" x1="1467.5" y1="0" x2="917.5" y2="550"/>
	<line class="st0" x1="1462.5" y1="0" x2="912.5" y2="550"/>
	<line class="st0" x1="1457.5" y1="0" x2="907.5" y2="550"/>
	<line class="st0" x1="1452.5" y1="0" x2="902.5" y2="550"/>
	<line class="st0" x1="1447.5" y1="0" x2="897.5" y2="550"/>
	<line class="st0" x1="1442.5" y1="0" x2="892.5" y2="550"/>
	<line class="st0" x1="1437.5" y1="0" x2="887.5" y2="550"/>
	<line class="st0" x1="1432.5" y1="0" x2="882.5" y2="550"/>
	<line class="st0" x1="1427.5" y1="0" x2="877.5" y2="550"/>
	<line class="st0" x1="1422.5" y1="0" x2="872.5" y2="550"/>
	<line class="st0" x1="1417.5" y1="0" x2="867.5" y2="550"/>
	<line class="st0" x1="1412.5" y1="0" x2="862.5" y2="550"/>
	<line class="st0" x1="1407.5" y1="0" x2="857.5" y2="550"/>
	<line class="st0" x1="1402.5" y1="0" x2="852.5" y2="550"/>
</g>
</svg>
